<svg fill="none" height="220" viewBox="0 0 220 220" width="220" xmlns="http://www.w3.org/2000/svg"><path d="m30.4509 49.0629c11.5538 0 20.9201-9.3662 20.9201-20.9201 0-11.5538-9.3663-20.92008-20.9201-20.92008-11.5539 0-20.92014 9.36628-20.92014 20.92008 0 11.5539 9.36624 20.9201 20.92014 20.9201z" fill="#f9dac5"/><path d="m9.53076 28.1417c0 11.5548 9.36294 20.9218 20.91774 20.9218 1.7929 0 3.5382-.2253 5.1967-.6493-9.0382-2.3127-15.721-10.5106-15.721-20.2725 0-9.7614 6.6822-17.9558 15.721-20.26839-1.6585-.42459-3.4038-.64937-5.1967-.64937-11.5548 0-20.91774 9.36286-20.91774 20.91776z" fill="#000" opacity=".25"/><path d="m30.4502 52.0362c-13.1747 0-23.89283-10.7187-23.89283-23.8934 0-13.1746 10.71813-23.89335 23.89283-23.89335 13.1746 0 23.8934 10.71875 23.8934 23.89335 0 13.1747-10.7182 23.8934-23.8934 23.8934zm0-41.8402c-9.8957 0-17.9462 8.0511-17.9462 17.9468 0 9.8958 8.051 17.9469 17.9462 17.9469 9.8957 0 17.9468-8.0511 17.9468-17.9469 0-9.8957-8.0511-17.9468-17.9468-17.9468z" fill="#333"/><path d="m211.473 104.446c0 2.914-.125 5.804-.368 8.658h-202.20823c-.24381-2.854-.36869-5.744-.36869-8.658 0-7.5047.81468-14.825 2.36672-21.8657h198.2122c1.552 7.0407 2.366 14.361 2.366 21.8657z" fill="#f9dac5"/><path d="m8.89673 113.104h202.20827c-.328 3.901-.875 7.737-1.636 11.495h-198.937c-.76112-3.758-1.30821-7.594-1.63527-11.495z" fill="#f9a064"/><path d="m10.532 124.599h198.937c-2.319 11.53-6.601 22.359-12.476 32.111h-173.9851c-5.8752-9.752-10.1567-20.581-12.4759-32.111z" fill="#f9911e"/><path d="m209.106 82.5803h-198.2112c1.8969-8.6583 4.9059-16.9062 8.8663-24.5832h180.4789c3.961 7.677 6.97 15.9249 8.866 24.5832z" fill="#f9700b"/><path d="m200.24 57.9971h-180.4788c1.7602-3.4193 3.7166-6.7256 5.8396-9.907h168.8002c2.123 3.1814 4.079 6.4877 5.839 9.907z" fill="#f9dac5"/><path d="m23.0081 156.71h173.9849c-3.597 5.983-7.796 11.561-12.517 16.651h-148.9504c-4.7216-5.09-8.9199-10.668-12.5175-16.651z" fill="#f9700b"/><path d="m194.401 48.0901h-168.8002c4.1507-6.2023 8.9675-11.917 14.3432-17.0489h140.114c5.375 5.1319 10.192 10.8466 14.343 17.0489z" fill="#e0aa86"/><path d="m35.5256 173.361h148.9504c-5.881 6.363-12.571 11.964-19.909 16.65h-109.1322c-7.3381-4.686-14.028-10.287-19.9092-16.65z" fill="#e0aa86"/><path d="m180.057 31.0412h-140.1132c18.2144-17.3879 42.8869-28.06793 70.0572-28.06793 27.17 0 51.842 10.68003 70.056 28.06793z" fill="#f9a064"/><path d="m55.4348 190.011h109.1322c-15.753 10.068-34.479 15.907-54.566 15.907-20.0879 0-38.8137-5.839-54.5662-15.907z" fill="#f9dac5"/><g fill="#333"><path d="m180.058 34.0145h-140.114c-1.6419 0-2.9733-1.3315-2.9733-2.9733 0-1.6419 1.3314-2.9733 2.9733-2.9733h140.114c1.641 0 2.973 1.3314 2.973 2.9733 0 1.6418-1.331 2.9733-2.973 2.9733z"/><path d="m145.145 51.0633h-119.5443c-1.6418 0-2.9733-1.3314-2.9733-2.9732 0-1.6419 1.3315-2.9733 2.9733-2.9733h119.5443c1.642 0 2.973 1.3314 2.973 2.9733 0 1.6418-1.331 2.9732-2.973 2.9732z"/><path d="m194.401 51.0633h-37.363c-1.642 0-2.973-1.3314-2.973-2.9732 0-1.6419 1.331-2.9733 2.973-2.9733h37.363c1.642 0 2.973 1.3314 2.973 2.9733 0 1.6418-1.331 2.9732-2.973 2.9732z"/><path d="m77.6512 60.9704h-57.8901c-1.6418 0-2.9733-1.3315-2.9733-2.9733 0-1.6419 1.3315-2.9733 2.9733-2.9733h57.8901c1.6418 0 2.9733 1.3314 2.9733 2.9733 0 1.6418-1.3309 2.9733-2.9733 2.9733z"/><path d="m200.24 60.9704h-113.0743c-1.6419 0-2.9733-1.3315-2.9733-2.9733 0-1.6419 1.3314-2.9733 2.9733-2.9733h113.0743c1.642 0 2.973 1.3314 2.973 2.9733 0 1.6418-1.331 2.9733-2.973 2.9733z"/><path d="m157.038 127.572h-146.5059c-1.64182 0-2.97326-1.331-2.97326-2.973s1.33144-2.973 2.97326-2.973h146.5059c1.642 0 2.974 1.331 2.974 2.973s-1.331 2.973-2.974 2.973z"/><path d="m209.469 127.572h-41.43c-1.641 0-2.973-1.331-2.973-2.973s1.332-2.973 2.973-2.973h41.43c1.642 0 2.974 1.331 2.974 2.973s-1.332 2.973-2.974 2.973z"/><path d="m43.7556 159.684h-20.7476c-1.6419 0-2.9733-1.332-2.9733-2.974 0-1.641 1.3314-2.973 2.9733-2.973h20.7476c1.6419 0 2.9733 1.332 2.9733 2.973 0 1.642-1.3308 2.974-2.9733 2.974z"/><path d="m196.993 159.684h-77.121c-1.642 0-2.973-1.332-2.973-2.974 0-1.641 1.331-2.973 2.973-2.973h77.121c1.642 0 2.974 1.332 2.974 2.973 0 1.642-1.332 2.974-2.974 2.974z"/><path d="m184.476 176.334h-148.9505c-1.6418 0-2.9733-1.331-2.9733-2.973s1.3315-2.973 2.9733-2.973h148.9505c1.642 0 2.973 1.331 2.973 2.973s-1.331 2.973-2.973 2.973z"/><path d="m131.765 192.985h-76.3303c-1.6418 0-2.9733-1.332-2.9733-2.974s1.3315-2.973 2.9733-2.973h76.3303c1.642 0 2.973 1.331 2.973 2.973s-1.331 2.974-2.973 2.974z"/><path d="m164.566 192.985h-19.421c-1.642 0-2.973-1.332-2.973-2.974s1.331-2.973 2.973-2.973h19.421c1.642 0 2.974 1.331 2.974 2.973s-1.332 2.974-2.974 2.974z"/><path d="m133.549 85.5536h-122.6541c-1.64183 0-2.97327-1.3315-2.97327-2.9733 0-1.6419 1.33144-2.9733 2.97327-2.9733h122.6541c1.642 0 2.974 1.3314 2.974 2.9733 0 1.6418-1.331 2.9733-2.974 2.9733z"/><path d="m209.107 85.5536h-64.557c-1.641 0-2.973-1.3315-2.973-2.9733 0-1.6419 1.332-2.9733 2.973-2.9733h64.557c1.641 0 2.973 1.3314 2.973 2.9733 0 1.6418-1.332 2.9733-2.973 2.9733z"/><path d="m66.9475 116.077h-58.05062c-1.64185 0-2.9733-1.331-2.9733-2.973s1.33145-2.973 2.9733-2.973h58.05062c1.6418 0 2.9733 1.331 2.9733 2.973s-1.3315 2.973-2.9733 2.973z"/><path d="m77.7719 116.077c-.1903 0-.3865-.017-.5768-.059-.1903-.036-.3806-.095-.559-.167-.1784-.077-.3509-.166-.5114-.273-.1665-.107-.3152-.232-.452-.369-.553-.553-.8741-1.32-.8741-2.105s.3211-1.546.8741-2.105c.1368-.137.2855-.256.452-.369.1605-.107.333-.196.5114-.273.1784-.072.3687-.131.559-.167.9633-.196 1.9921.119 2.6819.809.1368.143.2616.291.3687.452.107.166.1962.339.2735.517.0714.179.1308.363.1725.553.0356.197.0535.387.0535.583s-.0179.387-.0535.583c-.0417.19-.1011.375-.1725.553-.0773.178-.1665.357-.2735.517-.1071.161-.2319.315-.3687.452-.5531.553-1.3202.868-2.1051.868z"/><path d="m211.104 116.077h-123.9383c-1.6419 0-2.9733-1.331-2.9733-2.973s1.3314-2.973 2.9733-2.973h123.9383c1.642 0 2.974 1.331 2.974 2.973s-1.332 2.973-2.974 2.973z"/></g><path d="m154.419 31.2778c-.539 0-1.084-.1468-1.575-.4537-3.51-2.1984-7.205-4.159-10.985-5.827-1.502-.6631-2.182-2.4185-1.519-3.9212.664-1.5021 2.419-2.1824 3.921-1.5194 4.039 1.7834 7.989 3.8784 11.739 6.2279 1.392.8718 1.814 2.7063.942 4.0984-.565.9009-1.533 1.395-2.523 1.395z" fill="#fff"/><path d="m168.155 172.654c-.794 0-1.586-.317-2.172-.942-1.121-1.2-1.059-3.081.14-4.203 17.468-16.343 27.487-39.39 27.487-63.232 0-23.979-9.616-46.2978-27.076-62.8459-1.192-1.1299-1.243-3.0114-.113-4.2037 1.13-1.1917 3.012-1.2422 4.203-.113 18.658 17.6822 28.932 41.534 28.932 67.1616 0 25.482-10.705 50.112-29.37 67.575-.574.537-1.303.803-2.031.803z" fill="#fff"/><path d="m155.648 182.443c-.973 0-1.927-.477-2.497-1.355-.893-1.377-.502-3.218.876-4.112 1.516-.984 3.021-2.03 4.474-3.108 1.318-.979 3.181-.703 4.16.616.978 1.319.703 3.18-.616 4.159-1.553 1.152-3.161 2.269-4.781 3.32-.5.325-1.061.48-1.616.48z" fill="#fff"/><path d="m101.694 138.805c4.957 3.081 7.99 7.216 7.99 11.763 0 9.524-13.3116 17.245-29.7325 17.245-16.421 0-29.733-7.721-29.733-17.245s13.312-17.245 29.733-17.245c4.291 0 8.3698.527 12.0543 1.475" fill="#edc3a6"/><path d="m79.9514 170.786c-18.3399 0-32.7063-8.881-32.7063-20.218 0-11.338 14.3664-20.219 32.7063-20.219 4.4456 0 8.751.528 12.7964 1.57 1.5901.41 2.5475 2.031 2.1378 3.621-.4091 1.59-2.0289 2.548-3.6209 2.138-3.5614-.917-7.3678-1.382-11.3127-1.382-14.5056 0-26.7597 6.536-26.7597 14.272s12.2541 14.271 26.7597 14.271c14.5055 0 26.76-6.535 26.76-14.271 0-3.317-2.34-6.598-6.587-9.238-1.3943-.867-1.8219-2.7-.9555-4.095.8675-1.394 2.6995-1.822 4.0945-.955 6.058 3.765 9.394 8.839 9.394 14.288 0 11.337-14.3668 20.218-32.7066 20.218z" fill="#333"/><path d="m79.9515 157.109c-11.8076 0-18.3393-4.841-19.0059-6.541.6672-1.701 7.1983-6.542 19.0059-6.542 11.8075 0 18.3392 4.841 19.0059 6.542-.6667 1.7-7.1984 6.541-19.0059 6.541z" fill="#f9700b"/><path d="m79.9513 160.082c-12.0508 0-20.3885-4.895-21.7741-8.429l-.4257-1.085.4257-1.086c1.3856-3.534 9.7233-8.429 21.7741-8.429 12.0507 0 20.3887 4.895 21.7737 8.429l.426 1.086-.426 1.085c-1.385 3.534-9.7224 8.429-21.7737 8.429zm-14.6988-9.514c2.3543 1.478 7.1888 3.568 14.6994 3.568 7.5105 0 12.3451-2.09 14.6994-3.568-2.3543-1.479-7.1889-3.568-14.6994-3.568-7.5106 0-12.3451 2.089-14.6994 3.568z" fill="#333"/><path d="m118.687 200.394c-11.87-4.192-22.728-10.537-32.0998-18.559-21.7586-18.613-35.5487-46.265-35.5487-77.139 0-27.3785 10.8465-52.2293 28.4722-70.4794 9.7108-10.0556 21.4793-18.1133 34.6273-23.489 5.482-2.23887 11.207-4.00679 17.119-5.26688-6.856-1.46226-13.965-2.2377-21.256-2.2377-13.5823 0-26.534 2.67002-38.3737 7.50458-13.1479 5.3757-24.9162 13.4334-34.627 23.489-17.6256 18.2501-28.47222 43.1009-28.47222 70.4794 0 30.874 13.79012 58.526 35.54872 77.139 9.3718 8.022 20.2303 14.367 32.0997 18.559 10.579 3.74 21.9667 5.774 33.8245 5.774 7.287 0 14.395-.773 21.249-2.233-4.294-.916-8.489-2.101-12.563-3.541z" fill="#000" opacity=".25"/><path d="m110.001 208.892c-19.9832 0-39.4054-5.663-56.1676-16.375-7.532-4.81-14.4265-10.576-20.4914-17.138-4.8607-5.24-9.1958-11.007-12.8821-17.136-6.1696-10.241-10.49095-21.364-12.84283-33.058-.78257-3.863-1.34928-7.845-1.68348-11.832-.25154-2.943-.37939-5.941-.37939-8.907 0-7.5993.81944-15.1711 2.43632-22.5056 1.92372-8.7795 4.99458-17.295 9.12798-25.3063 1.7769-3.4526 3.7993-6.8832 6.0085-10.1942 4.25-6.3504 9.2166-12.2536 14.7636-17.549 19.5161-18.6307 45.1251-28.8909 72.1104-28.8909 26.984 0 52.593 10.2602 72.11 28.8903 5.546 5.2949 10.513 11.1986 14.76 17.546 2.212 3.314 4.234 6.7446 6.012 10.2002 4.132 8.0089 7.204 16.5244 9.128 25.3075 1.616 7.3321 2.436 14.9027 2.436 22.502 0 2.964-.128 5.963-.38 8.911-.334 3.983-.901 7.965-1.684 11.832-2.351 11.69-6.673 22.813-12.843 33.056-3.685 6.127-8.021 11.894-12.885 17.138-6.061 6.558-12.956 12.324-20.489 17.134-16.76 10.712-36.182 16.375-56.165 16.375zm0-202.94541c-25.4487 0-49.5996 9.67571-68.0037 27.24551-5.2336 4.9963-9.9189 10.5647-13.9252 16.5517-2.083 3.122-3.9901 6.3581-5.6671 9.6145-3.8968 7.5539-6.7916 15.58-8.6053 23.8588-1.5247 6.9183-2.2977 14.0602-2.2977 21.2289 0 2.798.1207 5.626.358 8.405.3151 3.764.8491 7.516 1.5865 11.158 2.2175 11.026 6.2915 21.511 12.1085 31.168 3.4769 5.78 7.564 11.218 12.1506 16.163 5.7236 6.192 12.2256 11.63 19.3294 16.166 15.8049 10.101 34.1197 15.44 52.966 15.44 18.846 0 37.16-5.339 52.964-15.439 7.105-4.538 13.607-9.975 19.327-16.164 4.589-4.948 8.677-10.385 12.153-16.164 5.818-9.659 9.892-20.144 12.109-31.166.738-3.646 1.272-7.398 1.587-11.157.238-2.785.358-5.613.358-8.41 0-7.1705-.773-14.3118-2.297-21.2253v-.0036c-1.814-8.2776-4.709-16.3043-8.605-23.8565-1.677-3.2593-3.585-6.4948-5.67-9.6198-4.005-5.984-8.69-11.553-13.923-16.5487-18.405-17.5698-42.555-27.24551-68.003-27.24551z" fill="#333"/><path d="m179.635 217.027c15.865 0 28.725-12.861 28.725-28.725 0-15.865-12.86-28.725-28.725-28.725-15.864 0-28.725 12.86-28.725 28.725 0 15.864 12.861 28.725 28.725 28.725z" fill="#f9911e"/><path d="m150.91 188.3c0 15.865 12.857 28.728 28.722 28.728 2.462 0 4.859-.309 7.136-.892-12.41-3.176-21.586-14.432-21.586-27.836s9.176-24.655 21.586-27.83c-2.277-.583-4.674-.892-7.136-.892-15.865 0-28.722 12.856-28.722 28.722z" fill="#000" opacity=".25"/><path d="m194.061 205.7c-.762 0-1.522-.291-2.103-.871-1.162-1.161-1.162-3.043 0-4.205 4.093-4.093 5.879-9.947 4.776-15.657-.312-1.612.742-3.171 2.354-3.483 1.613-.312 3.172.743 3.484 2.355 1.478 7.651-.918 15.498-6.409 20.989-.581.581-1.342.872-2.102.872z" fill="#fff"/><path d="m179.635 220c-17.479 0-31.698-14.22-31.698-31.698 0-17.479 14.22-31.699 31.698-31.699 17.479 0 31.699 14.22 31.699 31.699 0 17.478-14.22 31.698-31.699 31.698zm0-57.45c-14.199 0-25.751 11.552-25.751 25.752 0 14.199 11.552 25.751 25.751 25.751 14.2 0 25.752-11.552 25.752-25.751 0-14.2-11.552-25.752-25.752-25.752z" fill="#333"/><path d="m194.718 178.027c-.197 0-.393-.018-.583-.059-.19-.036-.375-.095-.553-.167-.179-.077-.351-.166-.517-.273-.161-.113-.316-.232-.452-.369-.553-.553-.869-1.32-.869-2.105s.316-1.546.869-2.099c.136-.143.291-.268.452-.375.166-.107.338-.196.517-.273.178-.072.363-.131.553-.167.969-.196 1.998.119 2.688.815.553.553.868 1.314.868 2.099s-.315 1.546-.868 2.105c-.553.553-1.32.868-2.105.868z" fill="#fff"/><path d="m169.326 179.111c-.191 0-.387-.018-.577-.059-.191-.036-.381-.095-.559-.167-.179-.077-.351-.166-.512-.273-.166-.107-.315-.232-.452-.369-.553-.553-.874-1.32-.874-2.105s.321-1.552.874-2.105c.137-.137.286-.262.452-.369.161-.107.333-.196.512-.273.178-.072.368-.131.559-.167.38-.077.779-.077 1.159 0 .191.036.375.095.559.167.179.077.351.166.512.273.16.107.315.232.452.369.553.553.868 1.32.868 2.105s-.315 1.552-.868 2.105c-.137.137-.292.262-.452.369-.161.107-.333.196-.512.273-.184.072-.368.131-.559.167-.19.041-.386.059-.582.059z" fill="#333"/><path d="m180.029 198.539c-.19 0-.386-.024-.576-.06-.191-.035-.381-.095-.559-.172-.179-.072-.351-.167-.512-.274-.166-.107-.315-.232-.452-.368-.553-.553-.874-1.321-.874-2.1 0-.784.321-1.552.874-2.105.137-.136.286-.261.452-.368.161-.107.333-.202.512-.274.178-.077.368-.131.559-.172.963-.191 1.992.125 2.682.814.553.553.868 1.321.868 2.105 0 .779-.315 1.547-.868 2.1-.554.553-1.321.874-2.106.874z" fill="#333"/><path d="m168.535 200.121c-.196 0-.387-.018-.583-.054-.19-.042-.375-.095-.553-.172-.178-.072-.351-.167-.511-.274-.167-.107-.316-.232-.452-.369-.559-.553-.874-1.32-.874-2.105 0-.19.017-.386.059-.577.036-.19.095-.38.166-.559.078-.178.167-.35.274-.511.113-.166.232-.315.375-.452.136-.137.285-.262.452-.369.16-.107.333-.202.511-.273.178-.077.363-.131.553-.173.969-.196 1.992.125 2.688.815.137.137.262.286.369.452.107.161.196.333.273.511.071.179.131.369.167.559.041.191.059.387.059.577 0 .785-.315 1.552-.868 2.105s-1.32.869-2.105.869z" fill="#333"/></svg>