<svg fill="none" height="220" viewBox="0 0 220 220" width="220" xmlns="http://www.w3.org/2000/svg"><path d="m203.143 118.741c0 7.091-.75 14.009-2.18 20.674-39.767 17.122-63.629 12.378-116.3746-25.061-31.3162-22.2306-60.6204-10.055-78.14644 1.164.70911-22.0686 8.69384-42.3042 21.62504-58.3832 17.2089-6.8663 43.9361-12.0895 67.4175 6.5146 29.7365 23.5679 65.5385 36.1244 100.4465 18.0391 4.652 11.4381 7.212 23.9485 7.212 37.0525z" fill="#f9911e"/><path d="m200.964 139.415c-4.105 19.209-13.82 36.338-27.35 49.592-6.532 6.405-13.963 11.91-22.081 16.298-27.822-14.771-49.113-39.763-75.5923-44-23.1009-3.695-40.0331 5.69-50.7851 15.237-11.8012-16.228-18.76552-36.205-18.76552-57.801 0-1.078.01729-2.15.05188-3.223 17.52604-11.219 46.83024-23.3945 78.14644-1.164 52.7456 37.439 76.6076 42.183 116.3756 25.061z" fill="#e27f1b"/><path d="m163.784 40.0239c14.165 10.6424 25.372 25.0149 32.147 41.6646-34.908 18.0853-70.71 5.5288-100.4465-18.0391-23.4814-18.6041-50.2086-13.3809-67.4175-6.5146 16.5517-20.5815 41.2207-34.3602 69.1413-36.4818 2.4963-.1902 5.0157-.2883 7.5577-.2883 22.144 0 42.576 7.316 59.018 19.6592z" fill="#f9a24b"/><path d="m151.533 205.305c-13.911 7.535-29.84 11.812-46.767 11.812-1.648 0-3.286-.04-4.9115-.121-30.7109-1.51-57.7148-17.105-74.6989-40.454 10.752-9.547 27.6842-18.932 50.7851-15.237 26.4793 4.238 47.7703 29.229 75.5923 44z" fill="#f9a24b"/><path d="m174.277 49.127c-28.78 8.0136-69.511-28.7623-69.511-28.7623 22.144 0 42.576 7.316 59.018 19.6592 3.713 2.7845 7.218 5.8285 10.493 9.1031z" fill="#e27f1b"/><g fill="#333"><path d="m169.687 92.6971c-1.446 0-2.692-1.085-2.861-2.5557-.18-1.5819.955-3.0105 2.537-3.1916 8.637-.987 17.129-3.6182 25.241-7.821 1.411-.7321 3.153-.1804 3.885 1.2332s.181 3.153-1.234 3.8857c-8.736 4.5268-17.901 7.3627-27.238 8.4298-.11.0133-.22.0196-.33.0196z"/><path d="m159.216 93.141c-.028 0-.055-.0006-.083-.0011-2.454-.0692-4.955-.256-7.435-.5564-1.581-.1914-2.707-1.6275-2.516-3.2083.192-1.5802 1.629-2.7055 3.208-2.5153 2.305.279 4.628.4531 6.905.5171 1.592.045 2.846 1.371 2.801 2.9622-.044 1.5635-1.326 2.8018-2.88 2.8018z"/><path d="m141.332 90.5882c-.235 0-.474-.0288-.712-.0899-15.538-3.9532-31.326-12.2262-46.9256-24.5901-22.1012-17.5099-47.3064-12.9796-64.5597-6.096-1.4776.5909-3.1558-.1309-3.745-1.6091-.5898-1.4787.1303-3.1558 1.609-3.7456 18.667-7.448 46.0127-12.2907 70.2759 6.9326 14.9584 11.856 30.0204 19.7698 44.7654 23.5212 1.543.3926 2.475 1.9613 2.083 3.5046-.331 1.3041-1.504 2.1723-2.791 2.1723z"/><path d="m162.247 151.81c-5.082 0-10.085-.558-15.204-1.645-17.218-3.66-35.797-13.354-64.1236-33.461-13.28-9.427-27.4847-13.281-42.2204-11.451-1.5797.196-3.0198-.926-3.2158-2.506-.196-1.579.9253-3.0193 2.5055-3.2153 16.2104-2.0115 31.7763 2.1833 46.2687 12.4713 27.2726 19.358 45.8096 29.084 61.9846 32.522 15.96 3.392 30.906 1.144 51.582-7.758 1.462-.629 3.159.046 3.788 1.508.63 1.462-.046 3.158-1.508 3.787-15.378 6.622-27.831 9.748-39.857 9.748z"/><path d="m6.44482 118.402c-.95009 0-1.88059-.47-2.43058-1.329-.85843-1.341-.46755-3.124.87399-3.982 7.74377-4.957 15.52317-8.65 23.12167-10.975 1.5226-.466 3.1339.39 3.5998 1.913.4658 1.523-.3909 3.134-1.9129 3.6-7.0975 2.172-14.399 5.643-21.70115 10.317-.48024.309-1.01871.456-1.55083.456z"/><path d="m151.531 208.188c-.456 0-.919-.109-1.35-.337-10.746-5.706-20.46-12.853-29.853-19.766-1.039-.764-2.073-1.525-3.104-2.281-1.284-.941-1.562-2.745-.621-4.029.941-1.285 2.745-1.562 4.029-.621 1.034.758 2.071 1.521 3.112 2.287 9.227 6.79 18.767 13.81 29.141 19.317 1.405.747 1.94 2.492 1.194 3.898-.517.976-1.516 1.532-2.548 1.532z"/><path d="m25.1567 179.425c-.7955 0-1.5871-.327-2.1567-.969-1.0567-1.19-.9489-3.012.2416-4.069 10.6355-9.444 28.4896-19.873 53.1545-15.928 13.0368 2.086 24.3199 8.831 33.6359 15.154 1.318.894 1.661 2.686.767 4.003-.894 1.318-2.685 1.662-4.004.767-8.7923-5.967-19.388-12.323-31.3097-14.231-22.4385-3.589-38.7118 5.929-48.4151 14.546-.5494.488-1.2326.727-1.9135.727z"/><path d="m165.422 53.1655c-10.898 0-23.685-4.3278-38.166-12.9369-13.867-8.2436-23.997-17.341-24.422-17.7244-1.181-1.0665-1.274-2.8889-.208-4.0707 1.067-1.1813 2.889-1.2753 4.072-.2087.396.3568 39.89 35.6181 66.806 28.1252 1.53-.4272 3.123.4693 3.55 2.0034.427 1.5335-.47 3.123-2.004 3.5502-3.022.8417-6.234 1.2619-9.628 1.2619z"/></g><path d="m194.409 41.2853c10.604 0 19.201-8.5967 19.201-19.2014 0-10.6046-8.597-19.20133-19.201-19.20133-10.605 0-19.202 8.59673-19.202 19.20133 0 10.6047 8.597 19.2014 19.202 19.2014z" fill="#fcbc1d"/><path d="m175.207 22.0828c0 10.6055 8.594 19.2036 19.2 19.2036 1.646 0 3.247-.2069 4.77-.5961-8.296-2.1227-14.43-9.6474-14.43-18.607s6.134-16.48076 14.43-18.60291c-1.523-.38972-3.124-.59611-4.77-.59611-10.606-.00058-19.2 8.59352-19.2 19.19852z" fill="#000" opacity=".25"/><path d="m194.409 44.1679c-12.178 0-22.085-9.9068-22.085-22.084 0-12.17709 9.907-22.0839 22.085-22.0839 12.177 0 22.083 9.90681 22.083 22.0839 0 12.1772-9.906 22.084-22.083 22.084zm0-38.40276c-8.999 0-16.32 7.32056-16.32 16.31876 0 8.9983 7.321 16.3188 16.32 16.3188 8.997 0 16.318-7.3205 16.318-16.3188 0-8.9982-7.32-16.31876-16.318-16.31876z" fill="#333"/><path d="m113.188 211.764c-11.507-4.065-22.0342-10.216-31.1201-17.993-21.0946-18.045-34.464-44.853-34.464-74.785 0-26.5432 10.5156-50.6357 27.6035-68.3289 9.4145-9.7489 20.8237-17.5606 33.5706-22.7723 5.315-2.1706 10.865-3.8846 16.596-5.1062-6.646-1.4171-13.538-2.1694-20.607-2.1694-13.1676 0-25.7241 2.5885-37.2024 7.2756-12.7468 5.2117-24.156 13.0234-33.5705 22.7723-17.0878 17.6932-27.60344 41.7857-27.60344 68.3289 0 29.932 13.36934 56.74 34.46404 74.785 9.0858 7.777 19.613 13.928 31.1202 17.993 10.2562 3.626 21.2964 5.598 32.7921 5.598 7.065 0 13.956-.75 20.601-2.166-4.163-.887-8.23-2.036-12.18-3.432z" fill="#000" opacity=".25"/><path d="m147.83 47.8086c-.522 0-1.051-.1424-1.527-.4399-3.402-2.1314-6.984-4.0315-10.649-5.6492-1.457-.6429-2.116-2.3447-1.473-3.8016.643-1.4557 2.342-2.1164 3.801-1.473 3.917 1.729 7.746 3.7606 11.381 6.0379 1.349.8451 1.758 2.6237.913 3.9733-.547.8728-1.486 1.3525-2.446 1.3525z" fill="#fff"/><path d="m161.147 184.87c-.77 0-1.538-.307-2.105-.913-1.088-1.163-1.027-2.987.135-4.074 16.935-15.845 26.648-38.189 26.648-61.303 0-23.2471-9.322-44.8848-26.249-60.928-1.156-1.0954-1.205-2.9195-.109-4.0754 1.095-1.1553 2.919-1.2043 4.074-.1095 18.089 17.1432 28.05 40.2672 28.05 65.1129 0 24.704-10.379 48.583-28.475 65.512-.556.521-1.263.778-1.969.778z" fill="#fff"/><path d="m149.023 194.361c-.944 0-1.869-.463-2.421-1.314-.867-1.335-.487-3.12.848-3.987 1.47-.954 2.93-1.967 4.338-3.013 1.279-.949 3.084-.68 4.033.597.949 1.279.681 3.084-.597 4.033-1.505 1.116-3.064 2.2-4.635 3.219-.484.315-1.029.465-1.566.465z" fill="#fff"/><path d="m198.427 21.8805c-.19 0-.38-.0173-.565-.0577-.183-.0346-.363-.0922-.536-.1614-.178-.075-.346-.1614-.501-.2652-.156-.1038-.306-.2249-.438-.3575-.537-.5419-.842-1.2798-.842-2.0408 0-.7552.305-1.4989.842-2.0351.132-.1326.282-.2537.438-.3632.156-.1038.323-.1903.501-.2652.173-.0692.352-.1268.536-.1614.375-.075.756-.075 1.13 0 .185.0346.364.0922.537.1614.173.0749.34.1614.495.2652.162.1095.306.2306.439.3632.138.1326.253.2767.363.4381.104.1557.191.3229.26.4958.075.173.132.3575.167.5362.034.1903.058.3805.058.565 0 .1902-.024.3805-.058.565-.035.1845-.092.3632-.167.5361-.069.173-.157.3459-.26.5016-.109.1557-.225.3055-.363.4381-.133.1326-.277.2537-.439.3575-.155.1038-.322.1902-.495.2652-.173.0692-.352.1268-.537.1614-.19.0404-.374.0577-.565.0577z" fill="#333"/><path d="m192.662 29.9516c-.19 0-.38-.0172-.565-.0576-.184-.0346-.363-.0922-.536-.1614-.179-.075-.346-.1615-.501-.2652-.156-.1038-.306-.2249-.439-.3575-.536-.5361-.841-1.2798-.841-2.0408 0-.1845.017-.3748.057-.565.036-.1787.093-.3632.162-.5362.075-.1729.161-.3401.265-.4958.104-.1614.225-.3055.357-.4381s.283-.2537.439-.3632c.156-.1038.323-.1903.501-.2652.173-.0692.352-.1269.536-.1614.941-.1903 1.932.1153 2.601.7898.132.1326.253.2767.363.4381.104.1557.19.3229.265.4958.07.173.127.3575.162.5362.04.1902.057.3805.057.565 0 .761-.311 1.5047-.847 2.0408-.537.5362-1.281.8417-2.036.8417z" fill="#333"/><path d="m204.815 29.9413c-.403 0-.812-.0848-1.202-.2641-1.446-.6647-2.08-2.3764-1.415-3.8228 1.302-2.8342 1.108-6.1261-.518-8.8057-.827-1.3612-.393-3.134.968-3.9601s3.134-.3926 3.96.968c2.622 4.3186 2.932 9.6289.829 14.2053-.486 1.0561-1.53 1.6794-2.622 1.6794z" fill="#fff"/><path d="m104.766 220c-1.691 0-3.391-.042-5.0545-.125-30.7126-1.51-58.7381-16.686-76.8867-41.637-12.6378-17.379-19.31729-37.953-19.31729-59.497 0-1.114.01787-2.229.05361-3.317.70912-22.0893 8.40668-42.8709 22.25918-60.096 17.4966-21.7559 43.4363-35.4423 71.1689-37.5495 2.5828-.1966 5.1998-.2963 7.7768-.2963 22.106 0 43.112 6.9977 60.748 20.2362 3.795 2.8462 7.429 5.9986 10.799 9.3689 9.674 9.6624 17.173 20.9384 22.287 33.5151 4.926 12.1114 7.424 24.9426 7.424 38.1386 0 7.181-.755 14.34-2.243 21.278-4.149 19.419-13.884 37.071-28.151 51.046-6.771 6.64-14.419 12.285-22.728 16.775-14.683 7.955-31.33 12.16-48.136 12.16zm0-196.7527c-2.431 0-4.9005.094-7.3386.2802-26.1507 1.9872-50.6127 14.8948-67.1137 35.4141-13.0627 16.2427-20.32099 35.839-20.99032 56.6694-.03344 1.026-.05016 2.079-.05016 3.131 0 20.318 6.29838 39.719 18.21438 56.105 17.1173 23.533 43.5458 37.846 72.5087 39.271 1.5707.078 3.1747.117 4.7697.117 15.85 0 31.547-3.964 45.394-11.464 7.837-4.236 15.048-9.558 21.435-15.822 13.457-13.181 22.638-29.826 26.55-48.136 1.404-6.544 2.115-13.296 2.115-20.071 0-12.448-2.355-24.5483-7-35.9667-4.822-11.8595-11.895-22.4939-21.02-31.608l-.001-.0011c-3.18-3.1784-6.606-6.1514-10.184-8.8357-16.631-12.4844-36.441-19.0832-57.289-19.0832z" fill="#333"/></svg>