<svg fill="none" height="220" viewBox="0 0 220 220" width="220" xmlns="http://www.w3.org/2000/svg" xmlns:xlink="http://www.w3.org/1999/xlink"><clipPath id="a"><path d="m0 0h220v220h-220z"/></clipPath><g clip-path="url(#a)"><path d="m104.664 216.737c-56.5406-2.781-101.53258-49.507-101.53258-106.737 0-56.2651 43.47638-102.36566 98.65758-106.55548 1.829 2.56775 2.881 5.45491 2.881 8.77418 0 25.6149-62.6277 25.6149-62.6277 51.2298s62.6277 25.6149 62.6277 51.2295c0 25.615-62.6277 25.615-62.6277 51.23 0 25.483 61.9827 25.615 62.6217 50.829z" fill="#db2b19"/><path d="m104.664 216.737c-.639-25.214-62.6217-25.346-62.6217-50.829 0-25.615 62.6277-25.615 62.6277-51.23 0-25.6146-62.6277-25.6146-62.6277-51.2295s62.6277-25.6149 62.6277-51.2298c0-3.31924-1.052-6.2064-2.881-8.77415 2.712-.20667 5.449-.31314 8.211-.31314 24.055 0 46.251 7.94749 64.112 21.35619-16.89 7.0143-35.391 13.3711-35.391 27.2933 0 25.6149 62.628 25.6149 62.628 51.2301 0 25.615-62.628 25.615-62.628 51.229 0 16.979 27.513 22.703 46.069 32.091-19.27 18.889-45.674 30.538-74.79 30.538-1.791 0-3.57-.044-5.336-.132z" fill="#f24125"/><path d="m138.721 51.7809c0-13.9222 18.501-20.2789 35.391-27.2933 25.96 19.4961 42.757 50.5409 42.757 85.5124 0 29.905-12.282 56.935-32.079 76.331-18.556-9.388-46.069-15.112-46.069-32.09 0-25.615 62.628-25.615 62.628-51.23 0-25.6152-62.628-25.6152-62.628-51.2301z" fill="#fc7365"/><g fill="#333"><path d="m170.037 131.758c-1.235 0-2.404-.734-2.9-1.946-.655-1.601.113-3.429 1.713-4.084 14.255-5.831 28.995-11.859 28.995-22.717 0-10.7097-14.177-16.5429-29.187-22.7187-16.257-6.6886-33.068-13.6053-33.068-28.5108 0-14.9105 16.91-21.8278 33.263-28.5164 1.356-.5549 2.712-1.1098 4.058-1.6691 1.598-.6638 3.431.094 4.093 1.691.664 1.597-.093 3.4295-1.69 4.0927-1.357.5631-2.724 1.1223-4.09 1.6816-15.105 6.1783-29.371 12.0139-29.371 22.7202 0 10.7101 14.178 16.5432 29.188 22.719 16.257 6.6887 33.067 13.606 33.067 28.5105 0 15.063-17.472 22.209-32.888 28.514-.387.158-.789.233-1.183.233z"/><path d="m156.375 137.691c-1.158 0-2.271-.645-2.815-1.755-.761-1.553-.118-3.429 1.435-4.189 1.531-.75 3.193-1.517 5.078-2.344 1.583-.695 3.431.025 4.125 1.609.696 1.584-.025 3.43-1.609 4.126-1.804.791-3.387 1.522-4.839 2.234-.444.216-.913.319-1.375.319z"/><path d="m184.788 189.463c-.475 0-.958-.108-1.411-.338-4.445-2.249-9.569-4.344-14.523-6.371-16.353-6.687-33.264-13.602-33.264-28.514 0-6.874 3.665-12.706 11.204-17.83 1.43-.972 3.378-.601 4.35.829s.601 3.378-.83 4.35c-5.772 3.924-8.461 7.944-8.461 12.651 0 10.706 14.267 16.541 29.371 22.718 5.069 2.073 10.311 4.216 14.98 6.579 1.543.781 2.161 2.664 1.381 4.208-.552 1.09-1.654 1.718-2.797 1.718z"/><path d="m104.663 219.869c-1.693 0-3.086-1.351-3.129-3.052-.266-10.496-15.0565-16.545-29.3595-22.394-13.0567-5.34-26.5574-10.861-31.3967-20.567-.7716-1.548-.1428-3.428 1.4054-4.2 1.5481-.772 3.4282-.143 4.1998 1.405 3.7878 7.596 16.1787 12.664 28.1626 17.565 16.165 6.611 32.8794 13.446 33.2504 28.032.043 1.729-1.323 3.166-3.052 3.21-.027 0-.054.001-.081.001z"/><path d="m42.7462 164.525c-.32 0-.6463-.049-.967-.154-1.6446-.534-2.5458-2.3-2.0116-3.945 3.6594-11.275 18.2724-17.251 32.4038-23.031 15.1028-6.177 29.3686-12.012 29.3686-22.717 0-5.872-4.1633-10.698-13.4986-15.6486-1.5282-.8098-2.11-2.7055-1.2996-4.2336.8111-1.5275 2.7062-2.1094 4.2337-1.2996 7.2235 3.8304 16.8275 10.1938 16.8275 21.1818 0 14.91-16.9083 21.825-33.2599 28.513-12.8093 5.239-26.0552 10.657-28.8177 19.168-.4309 1.325-1.659 2.166-2.9792 2.166z"/><path d="m79.4858 94.7319c-.4071 0-.8211-.0796-1.2194-.2487-2.0085-.8504-4.0521-1.6859-6.0956-2.522-16.3516-6.6874-33.2599-13.6028-33.2599-28.5127s16.9083-21.8253 33.2599-28.5133c15.1028-6.177 29.3682-12.0115 29.3682-22.7165 0-2.50886-.752-4.78476-2.2997-6.95796-1.0033-1.4085-.6745-3.36375.734-4.367055 1.4077-1.003302 3.3627-.674504 4.3667.734005 2.297 3.22534 3.462 6.78826 3.462 10.59041 0 14.9099-16.9085 21.8253-33.2601 28.5133-15.1028 6.1777-29.3682 12.0121-29.3682 22.7171s14.2654 16.5395 29.3682 22.7165c2.0673.8455 4.1347 1.6909 6.1664 2.5508 1.5926.6745 2.3372 2.512 1.6627 4.1047-.5054 1.1943-1.6652 1.9114-2.8852 1.9114z"/></g><path d="m119.148 211.053c-12.5-4.415-23.9364-11.098-33.8065-19.546-22.9157-19.603-37.4391-48.725-37.4391-81.241 0-28.8344 11.4233-55.0067 29.9863-74.2273 10.2272-10.5904 22.6213-19.0765 36.4683-24.7381 5.774-2.35791 11.803-4.21984 18.029-5.54693-7.22-1.5394-14.707-2.3567-22.386-2.3567-14.3042 0-27.9446 2.812-40.4139 7.90363-13.8471 5.6616-26.2412 14.1477-36.4683 24.7381-18.563 19.2206-29.98638 45.3929-29.98638 74.2273 0 32.516 14.52348 61.638 37.43908 81.241 9.8702 8.448 21.3061 15.131 33.8067 19.546 11.1415 3.939 23.1348 6.081 35.6228 6.081 7.675 0 15.161-.814 22.38-2.352-4.523-.965-8.941-2.212-13.232-3.729z" fill="#000" opacity=".25"/><path d="m156.781 32.9436c-.567 0-1.142-.1547-1.659-.4778-3.697-2.316-7.589-4.3809-11.568-6.137-1.582-.6983-2.299-2.547-1.601-4.129.698-1.5814 2.546-2.2991 4.129-1.6002 4.254 1.8776 8.414 4.084 12.365 6.5591 1.465.9181 1.909 2.8502.991 4.3163-.594.9482-1.614 1.4686-2.657 1.4686z" fill="#fff"/><path d="m171.247 181.838c-.837 0-1.671-.334-2.288-.992-1.181-1.264-1.115-3.245.148-4.426 18.747-17.541 29.072-41.192 29.072-66.595 0-24.8136-10.439-48.938-28.64-66.1882-1.255-1.19-1.308-3.1715-.118-4.4272 1.189-1.2551 3.171-1.3083 4.426-.119 19.444 18.427 30.596 44.2085 30.596 70.7334 0 27.156-11.03 52.431-31.057 71.168-.604.566-1.373.846-2.139.846z" fill="#fff"/><path d="m158.075 192.147c-1.025 0-2.03-.503-2.63-1.426-.941-1.451-.529-3.39.922-4.332 1.597-1.036 3.182-2.137 4.713-3.273 1.389-1.03 3.35-.739 4.38.649 1.031 1.389.741 3.35-.649 4.38-1.634 1.214-3.328 2.39-5.034 3.498-.526.341-1.117.504-1.702.504z" fill="#fff"/><path d="m110 220c-1.833 0-3.68-.046-5.49-.135-58.6036-2.882-104.51-51.141-104.51-109.865 0-27.9108 10.4677-54.5253 29.4753-74.9395 18.908-20.3078 44.506-32.64493 72.0777-34.738592 2.805-.213561 5.648-.321908 8.447-.321908 24.015 0 46.834 7.6018 65.992 21.9831 13.365 10.0368 24.437 23.188 32.022 38.0328 7.953 15.5662 11.986 32.3837 11.986 49.9841 0 29.805-11.726 57.707-33.018 78.568-20.678 20.269-48.018 31.432-76.982 31.432zm0-213.73719c-2.642 0-5.324.10208-7.973.30437-25.9977 1.97404-50.1359 13.60842-67.968 32.76142-17.9247 19.2512-27.79619 44.3494-27.79619 70.6714 0 55.381 43.29039 100.891 98.55519 103.609h.001c1.708.085 3.451.128 5.181.128 27.314 0 53.097-10.527 72.598-29.642 20.081-19.674 31.139-45.988 31.139-74.095 0-16.6002-3.801-32.4589-11.3-47.1345-7.154-14.0012-17.598-26.4059-30.205-35.874-18.064-13.5609-39.584-20.72869-62.232-20.72869z" fill="#333"/></g></svg>