<svg fill="none" height="220" viewBox="0 0 220 220" width="220" xmlns="http://www.w3.org/2000/svg"><path d="m207.049 120.109c0 6.995-.739 13.82-2.15 20.395-4.049 18.95-13.632 35.846-26.98 48.921-6.444 6.319-13.775 11.75-21.782 16.078-8.156 4.419-17.011 7.701-26.361 9.64-6.386 1.32-13.001 2.013-19.774 2.013-1.627 0-3.242-.039-4.846-.119-30.2958-1.49-56.9349-16.874-73.6895-39.907-11.5963-15.948-18.4608-35.569-18.512-56.782 0-.449.0057-.893.0057-1.342.0056-.37.017-.74.0227-1.104.0057-.324.0114-.648.0228-.972.6995-21.7709 8.5763-41.7331 21.3328-57.5949 2.4569-3.054 5.0901-5.9545 7.8939-8.6844 12.3528-12.057 27.9131-20.8495 45.282-24.9671 4.8796-1.1602 9.9015-1.945 15.0316-2.3374 2.462-.1877 4.948-.2844 7.456-.2844 21.844 0 42 7.2171 58.22 19.3935 3.663 2.747 7.121 5.7499 10.351 8.9802 9.111 9.0996 16.43 19.9964 21.361 32.1216 4.59 11.2835 7.115 23.6249 7.115 36.5519z" fill="#1aa5e2"/><g fill="#fff"><path d="m152.482 50.1348c-.515 0-1.037-.1404-1.506-.4339-3.357-2.1026-6.891-3.9777-10.506-5.5729-1.437-.6342-2.087-2.313-1.453-3.7502.634-1.436 2.311-2.0872 3.75-1.4531 3.863 1.7056 7.64 3.7092 11.227 5.9563 1.331.8337 1.734 2.5882.901 3.9196-.54.8611-1.466 1.3342-2.413 1.3342z"/><path d="m165.619 185.345c-.76 0-1.517-.303-2.077-.901-1.073-1.147-1.013-2.947.134-4.019 16.706-15.631 26.288-37.673 26.288-60.475 0-22.9334-9.196-44.2788-25.895-60.1053-1.14-1.0806-1.188-2.88-.108-4.0203 1.08-1.1398 2.88-1.1881 4.02-.1081 17.844 16.9111 27.67 39.7226 27.67 64.2327 0 24.371-10.238 47.927-28.09 64.628-.548.513-1.246.768-1.942.768z"/><path d="m153.658 194.707c-.931 0-1.843-.457-2.388-1.295-.855-1.318-.48-3.079.837-3.934 1.449-.94 2.888-1.94 4.279-2.972 1.262-.937 3.043-.672 3.979.589s.672 3.042-.59 3.978c-1.486 1.103-3.024 2.171-4.571 3.175-.478.311-1.016.459-1.546.459z"/><path d="m94.6468 86.9297h-74.8613c-1.5703 0-2.8437-1.2734-2.8437-2.8436 0-1.5703 1.2734-2.8437 2.8437-2.8437h74.8607c1.5703 0 2.8436 1.2734 2.8436 2.8437 0 1.5702-1.2728 2.8436-2.843 2.8436z"/><path d="m120.808 100.579h-63.6977c-1.5703 0-2.8436-1.2733-2.8436-2.8435 0-1.5703 1.2733-2.8437 2.8436-2.8437h63.6977c1.57 0 2.843 1.2734 2.843 2.8437 0 1.5702-1.273 2.8435-2.843 2.8435z"/><path d="m141.282 72.7115h-63.6976c-1.5702 0-2.8436-1.2733-2.8436-2.8436 0-1.5702 1.2734-2.8436 2.8436-2.8436h63.6976c1.57 0 2.843 1.2734 2.843 2.8436 0 1.5703-1.273 2.8436-2.843 2.8436z"/><path d="m168.305 86.9297h-31.573c-1.571 0-2.844-1.2734-2.844-2.8436 0-1.5703 1.273-2.8437 2.844-2.8437h31.573c1.57 0 2.843 1.2734 2.843 2.8437 0 1.5702-1.273 2.8436-2.843 2.8436z"/><path d="m207.047 123.897h-30.789c-1.571 0-2.843-1.274-2.843-2.844s1.272-2.843 2.843-2.843h30.789c1.571 0 2.844 1.273 2.844 2.843s-1.273 2.844-2.844 2.844z"/><path d="m164.884 123.897h-66.8255c-1.5703 0-2.8437-1.274-2.8437-2.844s1.2734-2.843 2.8437-2.843h66.8255c1.571 0 2.843 1.273 2.843 2.843s-1.272 2.844-2.843 2.844z"/><path d="m126.495 135.271h-44.3608c-1.5702 0-2.8436-1.273-2.8436-2.843 0-1.571 1.2734-2.844 2.8436-2.844h44.3608c1.571 0 2.843 1.273 2.843 2.844 0 1.57-1.272 2.843-2.843 2.843z"/><path d="m178.817 135.271h-14.218c-1.57 0-2.843-1.273-2.843-2.843 0-1.571 1.273-2.844 2.843-2.844h14.218c1.571 0 2.844 1.273 2.844 2.844 0 1.57-1.273 2.843-2.844 2.843z"/><path d="m61.6606 123.897h-38.1046c-1.5702 0-2.8436-1.274-2.8436-2.844s1.2734-2.843 2.8436-2.843h38.1046c1.5703 0 2.8436 1.273 2.8436 2.843s-1.2733 2.844-2.8436 2.844z"/><path d="m85.0659 123.897h-8.619c-1.5703 0-2.8436-1.274-2.8436-2.844s1.2733-2.843 2.8436-2.843h8.619c1.5703 0 2.8437 1.273 2.8437 2.843s-1.2728 2.844-2.8437 2.844z"/><path d="m121.376 86.9297h-12.512c-1.57 0-2.843-1.2734-2.843-2.8436 0-1.5703 1.273-2.8437 2.843-2.8437h12.512c1.571 0 2.844 1.2734 2.844 2.8437 0 1.5702-1.273 2.8436-2.844 2.8436z"/><path d="m166.306 165.414h-46.067c-1.571 0-2.844-1.274-2.844-2.844s1.273-2.843 2.844-2.843h46.067c1.57 0 2.843 1.273 2.843 2.843s-1.273 2.844-2.843 2.844z"/><path d="m82.7035 180.201h-38.6734c-1.5702 0-2.8436-1.274-2.8436-2.844s1.2734-2.844 2.8436-2.844h38.6734c1.5702 0 2.8436 1.274 2.8436 2.844s-1.2734 2.844-2.8436 2.844z"/><path d="m133.888 180.201h-38.6732c-1.5702 0-2.8436-1.274-2.8436-2.844s1.2734-2.844 2.8436-2.844h38.6732c1.571 0 2.844 1.274 2.844 2.844s-1.273 2.844-2.844 2.844z"/><path d="m107.727 165.414h-9.6679c-1.5703 0-2.8436-1.274-2.8436-2.844s1.2733-2.843 2.8436-2.843h9.6679c1.571 0 2.844 1.273 2.844 2.843s-1.273 2.844-2.844 2.844z"/><path d="m92.3718 48.2563h-9.6683c-1.5703 0-2.8436-1.2733-2.8436-2.8436 0-1.5702 1.2733-2.8436 2.8436-2.8436h9.6683c1.5703 0 2.8436 1.2734 2.8436 2.8436 0 1.5703-1.2733 2.8436-2.8436 2.8436z"/><path d="m63.2838 161.584c-12.1582 0-21.3272-5.379-21.3272-12.512s9.169-12.512 21.3272-12.512 21.3272 5.379 21.3272 12.512-9.169 12.512-21.3272 12.512zm0-19.337c-8.9512 0-15.6399 3.603-15.6399 6.825s6.6887 6.825 15.6399 6.825 15.6399-3.603 15.6399-6.825-6.6887-6.825-15.6399-6.825z"/><path d="m153.225 151.916h-71.4577c-1.5702 0-2.8436-1.274-2.8436-2.844s1.2734-2.844 2.8436-2.844h71.4577c1.571 0 2.843 1.274 2.843 2.844s-1.272 2.844-2.843 2.844z"/></g><path d="m129.776 215.143.546.12c-6.551 1.393-13.353 2.132-20.32 2.132-11.3406 0-22.2317-1.945-32.3494-5.522-11.3517-4.01-21.7366-10.078-30.6997-17.75-20.3047-17.369-33.3467-42.969-33.9683-71.631-.0171-.713-.0284-1.427-.0301-2.144 0-.449.0057-.893.0057-1.342.0056-.37.017-.74.0227-1.104.6256-25.2168 10.874-48.0511 27.2021-64.9594.6825-.7052 1.3763-1.399 2.0816-2.0815-.0114-.0682-.0228-.1365-.0342-.2104 12.3528-12.057 27.9131-20.8495 45.282-24.9671.0739.0626.1478.1252.2218.1934 7.1488-1.6777 14.5988-2.5763 22.2658-2.5763 6.972 0 13.769.745 20.326 2.1441-5.653 1.2057-11.124 2.8948-16.368 5.0332-6.313 2.582-12.29 5.8067-17.8522 9.5944.4663 1.9962.7166 4.0778.7166 6.2105 0 15.1736-12.3015 27.4751-27.4751 27.4751-1.2512 0-2.4854-.091-3.6968-.2559-7.6721 13.8882-12.0456 29.8579-12.0456 46.8459 0 29.528 13.1888 55.974 33.9984 73.775 8.9688 7.672 19.3537 13.74 30.6997 17.75 3.731 1.319 7.553 2.411 11.471 3.27z" fill="#000" opacity=".25"/><path d="m110 220c-55.0799 0-99.8909-44.811-99.8909-99.891 0-55.0798 44.811-99.8908 99.8909-99.8908 55.08 0 99.891 44.811 99.891 99.8908 0 55.081-44.811 99.891-99.891 99.891zm0-194.0946c-51.9439 0-94.2036 42.2597-94.2036 94.2036 0 51.944 42.2597 94.204 94.2036 94.204 51.944 0 94.204-42.26 94.204-94.204 0-51.9439-42.26-94.2036-94.204-94.2036z" fill="#333"/><path d="m47.4419 57.7882c15.1725 0 27.4723-12.2998 27.4723-27.4723s-12.2998-27.47227-27.4723-27.47227-27.4723 12.29977-27.4723 27.47227 12.2998 27.4723 27.4723 27.4723z" fill="#f24125"/><path d="m19.9696 30.3142c0 15.1736 12.2958 27.4751 27.4694 27.4751 2.3546 0 4.6465-.2957 6.8247-.8531-11.8693-3.037-20.6447-13.8029-20.6447-26.622s8.7754-23.57935 20.6447-26.61635c-2.1782-.55735-4.4701-.85309-6.8247-.85309-15.1736 0-27.4694 12.29584-27.4694 27.46944z" fill="#000" opacity=".25"/><path d="m61.238 46.9557c-.7279 0-1.4553-.2776-2.011-.8332-1.1107-1.1107-1.1107-2.9108 0-4.0215 3.9151-3.9151 5.6224-9.5125 4.5675-14.9739-.2981-1.5419.7109-3.0336 2.2527-3.3316 1.5401-.2992 3.033.7103 3.331 2.2527 1.4139 7.3178-.8775 14.8221-6.1297 20.0743-.5551.5551-1.2831.8332-2.0105.8332z" fill="#fff"/><path d="m47.4425 60.6318c-16.7166 0-30.3159-13.5999-30.3159-30.3159s13.5993-30.3159 30.3159-30.3159c16.716 0 30.3159 13.5999 30.3159 30.3159s-13.5999 30.3159-30.3159 30.3159zm0-54.94455c-13.5806 0-24.6292 11.04865-24.6292 24.62865s11.0486 24.6286 24.6292 24.6286 24.6286-11.0486 24.6286-24.6286-11.0486-24.62865-24.6286-24.62865z" fill="#333"/><path d="m61.0925 19.8451c-.1877 0-.3754-.0171-.5574-.0569-.182-.0341-.3583-.091-.5289-.1592-.1706-.0739-.3355-.1593-.4948-.2616-.1535-.1081-.3014-.2218-.4322-.3526-.5289-.529-.8304-1.2626-.8304-2.0133s.3015-1.4787.8304-2.0076c.1308-.1365.2787-.256.4322-.3583.1593-.1024.3242-.1877.4948-.2616.1706-.0683.3469-.1252.5289-.1593.927-.1877 1.9109.1138 2.5707.7792.5289.5289.8303 1.2569.8303 2.0076s-.3014 1.4787-.8303 2.0133c-.529.5289-1.2626.8303-2.0133.8303z" fill="#fff"/></svg>