<svg fill="none" height="220" viewBox="0 0 220 220" width="220" xmlns="http://www.w3.org/2000/svg" xmlns:xlink="http://www.w3.org/1999/xlink"><clipPath id="a"><path d="m0 0h220v220h-220z"/></clipPath><g clip-path="url(#a)"><path d="m104.885 141.923c-13.4257 37.835 86.825 11.314 86.739 38.61 15.781-18.253 25.325-42.046 25.325-68.067 0-31.1647-13.693-59.1382-35.394-78.2205h-.006s-66.9 2.1054-66.9 31.397 89.095 6.1024 81.772 35.3935c-7.323 29.292-78.111 3.052-91.536 40.887z" fill="#20ce55"/><path d="m60.9473 165.722c14.6458-54.922-42.7169-50.04-41.4964-70.1777 1.2205-20.138 42.7169.6102 46.9886-23.7994 4.2717-24.4097-28.5288-31.5983-28.5288-31.5983l-.0061-.0061c-18.0876 18.7283-29.21838 44.2303-29.21838 72.3255 0 31.684 14.15148 60.06 36.48028 79.161 7.274-6.744 12.931-15.226 15.7808-25.905z" fill="#20ce55"/><path d="m73.4389 16.0359c-13.4924 5.5166-25.5691 13.7854-35.5343 24.1046l.0061.0061s32.8004 7.1886 28.5288 31.5983c-4.2717 24.4096-45.7682 3.6614-46.9886 23.7994-1.2205 20.1377 56.1422 15.2557 41.4964 70.1777-2.8498 10.679-8.5068 19.162-15.7809 25.905 9.6174 8.232 20.7605 14.743 32.9409 19.045v-.006c36.6937-25.849 71.2277-.659 71.2277-.659v.006c16.482-6.169 30.988-16.403 42.289-29.48.086-27.296-100.1646-.775-86.739-38.61 13.425-37.835 84.213-11.595 91.536-40.887 7.323-29.2911-81.772-6.1019-81.772-35.3935s66.9-31.397 66.9-31.397c-8.494-7.4754-18.222-13.59-28.834-17.9899v.0061s-33.209 23.415-79.27-.2136z" fill="#1aa5e2"/><g fill="#333"><path d="m191.625 183.584c-.003 0-.007 0-.01 0-1.685-.006-3.047-1.376-3.041-3.061.03-9.582-20.021-10.773-39.412-11.925-2.511-.149-5.029-.299-7.523-.467-1.681-.114-2.952-1.569-2.838-3.25.113-1.681 1.562-2.95 3.249-2.839 2.477.167 4.979.315 7.474.464 11.102.659 21.589 1.282 29.77 3.383 10.229 2.626 15.404 7.556 15.382 14.652-.006 1.683-1.37 3.043-3.051 3.043z"/><path d="m132.707 167.389c-.103 0-.207-.006-.312-.016-1.912-.195-3.65-.401-5.314-.632-1.669-.231-2.835-1.772-2.603-3.441.231-1.669 1.769-2.835 3.441-2.603 1.589.22 3.256.418 5.094.605 1.677.171 2.898 1.668 2.727 3.344-.161 1.572-1.486 2.743-3.033 2.743z"/><path d="m115.344 164.112c-.326 0-.656-.052-.982-.163-6.318-2.145-10.368-5.208-12.381-9.363-1.849-3.816-1.84-8.42.028-13.684 7.782-21.931 32.55-24.09 54.402-25.995 3.849-.336 7.485-.653 11.012-1.068 1.673-.196 3.19 1 3.387 2.674s-1 3.19-2.674 3.387c-3.619.426-7.299.746-11.195 1.086-20.999 1.831-42.712 3.724-49.181 21.957-1.32 3.719-1.414 6.657-.288 8.982 1.264 2.609 4.16 4.653 8.852 6.246 1.596.542 2.45 2.275 1.908 3.87-.431 1.271-1.617 2.071-2.888 2.071z"/><path d="m186.407 115.497c-1.144 0-2.242-.647-2.762-1.751-.719-1.524-.066-3.342 1.458-4.061 4.649-2.192 7.304-5.175 8.358-9.389.822-3.2902-.022-4.9671-.73-5.9423-4.201-5.7954-20.538-6.9622-34.951-7.9911-10.719-.7652-21.802-1.5567-30.296-4.0563-10.542-3.1024-15.887-8.7087-15.887-16.6638 0-31.8815 67.003-34.3572 69.856-34.4469l.096-.0013c1.685 0 3.054 1.3664 3.054 3.0512 0 1.6636-1.328 3.0159-2.983 3.0506-.74.0263-16.938.6451-32.863 4.644-14.168 3.5583-31.059 10.5584-31.059 23.7024 0 11.7398 20.597 13.2105 40.516 14.6329 17.273 1.2333 33.587 2.3989 39.458 10.4968 2.2 3.0354 2.775 6.7377 1.708 11.0038-1.49 5.96-5.418 10.477-11.675 13.428-.419.199-.862.293-1.298.293z"/><path d="m45.167 194.678c-.8195 0-1.6372-.328-2.2383-.977-1.1455-1.236-1.0722-3.166.1635-4.312 7.3894-6.85 12.405-15.078 14.907-24.454 5.1462-19.298 1.8545-32.281-10.6737-42.095-1.3267-1.039-1.5598-2.957-.5206-4.284 1.0393-1.327 2.9573-1.559 4.2839-.521 14.5225 11.377 18.5916 26.78 12.8065 48.473-2.8034 10.507-8.4073 19.711-16.6547 27.356-.587.545-1.3315.814-2.0736.814z"/><path d="m38.9396 116.847c-.5065 0-1.0191-.127-1.4921-.392-1.2577-.707-2.5044-1.387-3.723-2.052-9.1958-5.017-17.8819-9.756-17.3193-19.043.3399-5.6069 3.2764-9.4063 8.7289-11.2931 4.2509-1.4713 9.4758-1.6397 15.0077-1.8185 13.3667-.4315 21.6043-1.3889 23.2917-11.0295 1.5304-8.7466-2.2262-16.072-11.1662-21.771-7.1222-4.5402-14.9351-6.3038-15.0132-6.3215-1.644-.3637-2.6838-1.9912-2.322-3.6358.3619-1.6446 1.9888-2.6851 3.6316-2.3244.3564.0781 8.8167 1.9704 16.8439 7.047 11.1607 7.0581 16.0145 16.7603 14.0373 28.0577-2.6643 15.2237-17.3253 15.6966-29.106 16.0768-12.1182.3912-17.4682 1.2071-17.8423 7.3815-.3124 5.1558 5.1737 8.4198 14.1509 13.3178 1.2406.676 2.5093 1.369 3.7896 2.088 1.4689.825 1.9912 2.685 1.1656 4.154-.5602.997-1.5958 1.558-2.6631 1.558z"/></g><path d="m51.4397 112.466c0-10.893 1.6825-21.3923 4.7862-31.2611 2.7345.8378 5.6368 1.2912 8.6459 1.2912 16.28 0 29.4777-13.1977 29.4777-29.4777 0-7.3101-2.6668-13.9934-7.0727-19.1451 13.1572-11.442 29.2082-19.6425 46.9182-23.3356-6.902-1.44631-14.048-2.20301-21.377-2.20301-16.9716 0-32.9941 4.06301-47.1505 11.26571-1.4432-.2173-2.92-.3314-4.423-.3314-15.704 0-28.5349 12.2811-29.424 27.7623-14.4646 17.8819-23.13367 40.6452-23.13367 65.4357 0 57.509 46.62247 104.132 104.13117 104.132 7.329 0 14.475-.757 21.377-2.203-47.2575-9.856-82.7553-51.75-82.7553-101.93z" fill="#000" opacity=".25"/><path d="m78.1103 213.718c-.9587 0-1.9027-.451-2.4971-1.294-.9703-1.378-.6407-3.281.7372-4.252 19.9799-14.075 39.3536-13.445 52.0866-10.438 1.64.387 2.656 2.03 2.268 3.67-.387 1.64-2.033 2.655-3.67 2.268-16.75-3.955-32.6196-.762-47.1708 9.489-.5334.376-1.1467.557-1.7539.557z" fill="#333"/><path d="m149.332 213.059c-.623 0-1.251-.19-1.793-.585-.086-.063-4.652-3.331-12.009-6.168-1.573-.606-2.356-2.372-1.749-3.945.606-1.573 2.371-2.356 3.944-1.75 8.195 3.16 13.199 6.778 13.408 6.93 1.361.993 1.66 2.902.667 4.263-.598.821-1.527 1.255-2.468 1.255z" fill="#333"/><path d="m114.797 29.6321c-11.914 0-26.5572-2.5648-42.7445-10.869l2.7851-5.4293c18.3616 9.4197 36.7344 12.3641 54.6074 8.7533 13.364-2.7003 21.437-8.2663 21.517-8.3225l3.511 4.9912c-.36.2538-8.989 6.2543-23.504 9.2488-4.545.9373-9.992 1.6275-16.172 1.6275z" fill="#333"/><path d="m112.818 219.649c-12.259 0-24.2798-2.052-35.7274-6.1-12.4324-4.391-23.8409-10.987-33.908-19.604-23.8617-20.412-37.54759-50.11-37.54759-81.479 0-27.9256 10.68049-54.3637 30.07449-74.4449 10.4358-10.8061 22.7413-19.153 36.5749-24.8094 12.8834-5.26085 26.5205-7.92821 40.5336-7.92821 14.231 0 28.048 2.74364 41.068 8.15461 10.837 4.4932 20.823 10.7232 29.679 18.5172l-4.031 4.5811c-8.353-7.3498-17.769-13.2252-27.987-17.4621-12.276-5.1016-25.306-7.6884-38.729-7.6884-13.218 0-26.0788 2.5148-38.2257 7.4748-13.0439 5.3336-24.6495 13.2063-34.4933 23.3991-18.2895 18.9377-28.3622 43.8709-28.3622 70.2062 0 29.583 12.9072 57.591 35.4123 76.842 9.4948 8.127 20.2521 14.347 31.9736 18.487 10.794 3.817 22.1303 5.752 33.6943 5.752 12.209 0 24.135-2.15 35.446-6.391 15.782-5.907 29.977-15.803 41.052-28.618 15.853-18.336 24.583-41.8 24.583-66.072 0-29.0533-12.523-56.7284-34.358-75.929l4.03-4.5829c23.152 20.3589 36.43 49.7048 36.43 80.5119 0 25.737-9.258 50.619-26.068 70.062-11.742 13.587-26.794 24.079-43.529 30.343-11.996 4.498-24.643 6.778-37.585 6.778z" fill="#333"/><path d="m32.5289 62.3581c16.2801 0 29.4777-13.1976 29.4777-29.4777s-13.1976-29.47769-29.4777-29.47769-29.47769 13.19759-29.47769 29.47769 13.19759 29.4777 29.47769 29.4777z" fill="#fcbc1d"/><path d="m3.05121 32.8786c0 16.2812 13.19339 29.4808 29.47469 29.4808 2.5264 0 4.9856-.3174 7.3229-.9154-12.7358-3.2587-22.1518-14.8106-22.1518-28.5654 0-13.7549 9.416-25.30062 22.1518-28.55931-2.3373-.59804-4.7965-.91537-7.3229-.91537-16.2813 0-29.47469 13.19338-29.47469 29.47468z" fill="#000" opacity=".25"/><path d="m29.2147 42.7584c0 3.6981 2.8925 6.7188 6.5356 6.9262-1.0374-1.2082-1.6537-2.7766-1.6537-4.4852 0-3.8323 3.1061-6.9385 6.9384-6.9385.1343 0 .2685.0061.4028.0122-1.2632-1.5012-3.1611-2.4531-5.2847-2.4531-3.8323 0-6.9384 3.1061-6.9384 6.9384z" fill="#000" opacity=".47"/><path d="m36.1519 52.7487c-5.5074 0-9.9884-4.481-9.9884-9.9885 0-5.5074 4.4803-9.9884 9.9884-9.9884 5.508 0 9.9884 4.481 9.9884 9.9884 0 1.6849-1.3663 3.0512-3.0512 3.0512s-3.0512-1.3663-3.0512-3.0512c0-2.1425-1.7435-3.886-3.886-3.886-2.1426 0-3.886 1.7435-3.886 3.886 0 2.1426 1.7428 3.886 3.886 3.886 1.6849 0 3.0512 1.3664 3.0512 3.0513 0 1.6848-1.3663 3.0512-3.0512 3.0512z" fill="#333"/><path d="m31.5128 30.2472c-.2014 0-.3966-.0183-.598-.061-.1953-.0366-.3845-.0976-.5675-.1709-.1831-.0793-.3601-.1708-.531-.2807-.1647-.1098-.3173-.238-.4637-.3783-.5676-.5675-.891-1.3548-.891-2.1603 0-.1952.0183-.3966.061-.5919.0366-.1953.0977-.3906.1709-.5736.0793-.1831.1709-.3601.2807-.5248.1099-.1709.238-.3235.3784-.4638.1464-.1404.299-.2685.4637-.3845.1709-.1098.3479-.2014.531-.2746.183-.0793.3722-.1403.5675-.177.9947-.2013 2.0443.1221 2.7583.8361.1403.1403.2624.2929.3783.4638.1099.1647.2014.3417.2807.5248.0733.183.1343.3783.1709.5736.0427.1953.061.3967.061.5919 0 .8055-.3234 1.5928-.8909 2.1603-.5737.5675-1.3548.8909-2.1603.8909z" fill="#333"/><path d="m29.8224 17.4322c-.7994 0-1.5866-.3235-2.1541-.891-.1404-.1403-.2685-.299-.3784-.4638-.1098-.1647-.2074-.3417-.2807-.5248-.0793-.1892-.1342-.3783-.1769-.5736-.0366-.1953-.0611-.3967-.0611-.598 0-.1953.0245-.3967.0611-.592.0427-.1953.0976-.3905.1769-.5736.0733-.1831.1709-.36.2807-.5248.1099-.1709.238-.3234.3784-.4638s.2929-.2685.4638-.3783c.1647-.1099.3417-.2075.5248-.2808.1831-.0793.3783-.1342.5736-.1769.3906-.0794.7994-.0794 1.19 0 .1953.0427.3844.0976.5736.1769.1831.0733.3601.1709.5248.2808.1648.1098.3234.2379.4638.3783s.2685.2929.3784.4638c.1098.1648.2074.3417.2807.5248.0793.1831.1342.3783.1769.5736.0366.1953.055.3967.055.592 0 .8055-.3235 1.5927-.891 2.1602s-1.3547.891-2.1603.891z" fill="#333"/><path d="m18.8381 26.5858c-.7994 0-1.5866-.3234-2.1541-.891-.5675-.5675-.8971-1.3547-.8971-2.1602 0-.7994.3296-1.5867.8971-2.1542s1.3547-.897 2.1541-.897c.8056 0 1.5928.3295 2.1603.897s.8909 1.3548.8909 2.1542c0 .8055-.3234 1.5927-.8909 2.1602-.5675.5676-1.3547.891-2.1603.891z" fill="#333"/><path d="m161.476 37.5549c-.553 0-1.113-.1508-1.616-.4656-3.603-2.2567-7.395-4.2681-11.273-5.9798-1.541-.6804-2.239-2.4818-1.559-4.0233s2.481-2.2396 4.023-1.5592c4.145 1.8295 8.198 3.9794 12.048 6.3911 1.428.8946 1.86 2.7772.966 4.2058-.579.9233-1.573 1.431-2.589 1.431z" fill="#fff"/><path d="m175.571 182.635c-.814 0-1.627-.325-2.228-.967-1.151-1.231-1.087-3.161.143-4.312 17.926-16.771 28.207-40.423 28.207-64.89 0-24.6065-9.867-47.5107-27.785-64.4925-1.223-1.1594-1.275-3.0902-.116-4.3138 1.16-1.2235 3.091-1.2748 4.314-.1159 19.145 18.1455 29.69 42.6223 29.69 68.9222 0 26.15-10.986 51.425-30.141 69.345-.588.552-1.337.824-2.084.824z" fill="#fff"/><path d="m162.737 192.681c-.999 0-1.977-.49-2.562-1.39-.917-1.414-.516-3.304.898-4.221 1.554-1.009 3.099-2.082 4.592-3.19 1.353-1.003 3.264-.721 4.268.633 1.005 1.353.722 3.264-.632 4.268-1.594 1.184-3.245 2.33-4.906 3.407-.512.333-1.088.493-1.658.493z" fill="#fff"/><path d="m47.3322 50.7343c-.7811 0-1.5616-.2978-2.1578-.894-1.1918-1.1918-1.1918-3.1233 0-4.3151 4.2009-4.2009 6.0329-10.2069 4.9009-16.067-.3198-1.6544.7628-3.255 2.4171-3.5748 1.6514-.3216 3.2545.7622 3.5742 2.4172 1.5171 7.8519-.9416 15.9041-6.5772 21.5397-.5955.5962-1.3767.894-2.1572.894z" fill="#fff"/><path d="m47.3303 21.1302c-.1953 0-.3967-.0244-.592-.061s-.3905-.0976-.5736-.177c-.1831-.0732-.36-.1708-.5248-.2807-.1709-.1098-.3234-.238-.4638-.3783-.5675-.5676-.897-1.3487-.897-2.1542 0-.2014.0183-.4027.061-.598.0366-.1953.0976-.3845.1769-.5675.0733-.1892.1648-.3662.2808-.531.1098-.1647.238-.3234.3783-.4637.1404-.1404.2929-.2685.4638-.3784.1648-.1098.3417-.2014.5248-.2807.1831-.0732.3783-.1343.5736-.1709.3906-.0793.7933-.0793 1.19 0 .1953.0366.3844.0977.5675.1709.1892.0793.3662.1709.5309.2807.1648.1099.3235.238.4638.3784.1404.1403.2685.299.3784.4637.1098.1648.2013.3418.2807.531.0732.183.1342.3722.1708.5675.0428.1953.0611.3966.0611.598 0 .8055-.3235 1.5866-.891 2.1542-.1403.1403-.299.2685-.4638.3783-.1647.1099-.3417.2075-.5309.2807-.1831.0794-.3722.1404-.5675.177s-.3967.061-.598.061z" fill="#fff"/><path d="m32.5289 65.4093c-17.9362 0-32.5289-14.5921-32.5289-32.5289s14.5927-32.528899 32.5289-32.528899 32.5289 14.592699 32.5289 32.528899-14.5921 32.5289-32.5289 32.5289zm0-58.95538c-14.5713 0-26.42649 11.85458-26.42649 26.42648 0 14.572 11.85519 26.4265 26.42649 26.4265 14.5714 0 26.4265-11.8545 26.4265-26.4265 0-14.5719-11.8545-26.42648-26.4265-26.42648z" fill="#333"/></g></svg>