<svg fill="none" height="220" viewBox="0 0 220 220" width="220" xmlns="http://www.w3.org/2000/svg" xmlns:xlink="http://www.w3.org/1999/xlink"><clipPath id="a"><path d="m0 0h220v220h-220z"/></clipPath><g clip-path="url(#a)"><path d="m104.664 216.737c-56.5406-2.781-101.53265-49.507-101.53265-106.737 0-56.2651 43.47645-102.36563 98.65765-106.55545 2.712-.20667 5.449-.31314 8.211-.31314 24.055 0 46.251 7.94749 64.112 21.35619 25.96 19.4961 42.757 50.5409 42.757 85.5124 0 29.905-12.282 56.935-32.079 76.331-19.27 18.889-45.674 30.538-74.79 30.538-1.791 0-3.57-.044-5.336-.132z" fill="#eac16e"/><path d="m148.615 132.768s30.804-20.403 46.636 5.234c15.833 25.638-6.484 62.159-73.295 63.318-48.7488-45.702-40.3698-87.594-11.426-95.973 28.945-8.3793 38.085 27.421 38.085 27.421z" fill="#efd4a5"/><g fill="#333"><path d="m148.613 135.9c-1.397 0-2.671-.941-3.032-2.357-.014-.057-1.606-6.133-5.416-12.412-.897-1.479-.425-3.405 1.053-4.301 1.48-.898 3.406-.426 4.302 1.053 4.313 7.11 6.058 13.829 6.13 14.111.427 1.676-.585 3.381-2.259 3.809-.261.066-.522.097-.778.097z"/><path d="m99.7828 113.813c-.947 0-1.882-.427-2.4977-1.239-1.0446-1.378-.7747-3.342.6031-4.387 3.4538-2.619 7.4138-4.586 11.7718-5.847 10.156-2.9398 19.194-1.276 26.869 4.946 1.344 1.089 1.55 3.061.46 4.404-1.089 1.344-3.063 1.549-4.404.461-5.988-4.855-13.115-6.132-21.183-3.795-3.618 1.047-6.891 2.669-9.729 4.822-.566.428-1.231.635-1.8902.635z"/><path d="m89.8976 126.68c-.4021 0-.8098-.078-1.2031-.242-1.5964-.665-2.3517-2.498-1.6859-4.095.6469-1.553 1.4041-3.062 2.2502-4.485.8831-1.486 2.8045-1.975 4.2925-1.092 1.4862.884 1.9747 2.805 1.091 4.292-.6952 1.17-1.3183 2.413-1.8525 3.693-.5011 1.204-1.6659 1.929-2.8922 1.929z"/><path d="m121.956 204.452c-.795 0-1.56-.303-2.142-.847-33.4517-31.361-36.7184-56.784-35.6882-69.147.1434-1.723 1.6578-3.004 3.3801-2.861 1.7235.144 3.0042 1.657 2.8602 3.381-1.5714 18.862 10.3739 41.84 32.8069 63.185 4.571-.112 9.035-.398 13.287-.853 1.722-.186 3.263 1.063 3.446 2.782.184 1.72-1.061 3.262-2.781 3.446-4.829.516-9.914.823-15.114.913-.019 0-.037.001-.055.001z"/><path d="m149.455 201.615c-1.458 0-2.763-1.023-3.066-2.507-.345-1.695.749-3.348 2.444-3.693 23.013-4.689 39.692-15.42 45.757-29.442 3.787-8.752 3.075-18.101-2.003-26.325-3.656-5.921-8.499-9.583-14.395-10.886-13.188-2.913-27.706 6.523-27.851 6.619-1.445.952-3.385.553-4.337-.888-.953-1.441-.56-3.381.881-4.336.679-.45 16.834-10.987 32.624-7.517 7.627 1.676 13.82 6.291 18.406 13.717 6.186 10.016 7.047 21.417 2.423 32.103-6.89 15.927-25.207 27.987-50.255 33.091-.211.043-.421.064-.628.064z"/></g><path d="m119.147 211.052c-12.5-4.415-23.936-11.097-33.8062-19.546-22.9157-19.602-37.4391-48.725-37.4391-81.241 0-28.834 11.4233-55.0063 29.9863-74.2269 10.2272-10.5904 22.621-19.0765 36.468-24.7381 5.775-2.35795 11.803-4.21988 18.03-5.54697-7.221-1.5394-14.707-2.3567-22.387-2.3567-14.3039 0-27.9443 2.812-40.4136 7.90367-13.8471 5.6616-26.2412 14.1477-36.4683 24.7381-18.563 19.2206-29.98636 45.3929-29.98636 74.2269 0 32.516 14.52346 61.639 37.43906 81.241 9.8702 8.449 21.3061 15.131 33.8067 19.546 11.1415 3.94 23.1348 6.082 35.6225 6.082 7.675 0 15.161-.815 22.38-2.353-4.523-.964-8.941-2.211-13.232-3.729z" fill="#000" opacity=".25"/><path d="m156.781 32.9436c-.568 0-1.143-.154-1.659-.4778-3.697-2.3154-7.589-4.3802-11.57-6.1369-1.581-.6983-2.298-2.5471-1.6-4.1291.699-1.5814 2.545-2.2991 4.13-1.6002 4.254 1.8776 8.414 4.0846 12.364 6.5591 1.466.9181 1.91 2.8502.991 4.3163-.594.9482-1.614 1.4686-2.656 1.4686z" fill="#fff"/><path d="m171.247 181.838c-.837 0-1.671-.334-2.288-.992-1.181-1.264-1.115-3.245.148-4.426 18.397-17.212 28.948-41.485 28.948-66.595 0-25.2539-10.127-48.7595-28.516-66.1876-1.255-1.1893-1.308-3.1715-.118-4.4266 1.189-1.255 3.171-1.3083 4.427-.1183 19.649 18.6224 30.47 43.7426 30.47 70.7335 0 26.837-11.274 52.777-30.933 71.168-.603.564-1.372.844-2.138.844z" fill="#fff"/><path d="m158.075 192.147c-1.025 0-2.03-.502-2.63-1.426-.941-1.451-.529-3.39.922-4.332 1.594-1.034 3.18-2.136 4.712-3.273 1.39-1.031 3.351-.74 4.381.649 1.031 1.389.741 3.35-.649 4.38-1.637 1.215-3.331 2.392-5.034 3.498-.526.341-1.118.504-1.702.504z" fill="#fff"/><path d="m110 220c-1.836 0-3.683-.046-5.49-.135-58.6036-2.882-104.51-51.141-104.51-109.865 0-27.9108 10.4683-54.5253 29.4753-74.9395 18.9074-20.3078 44.5054-32.64493 72.0757-34.737965 2.805-.214188 5.647-.322535 8.449-.322535 24.015 0 46.835 7.6018 65.992 21.9831 13.365 10.0368 24.437 23.188 32.022 38.0328 7.953 15.5662 11.986 32.3837 11.986 49.9841 0 29.805-11.726 57.707-33.018 78.568-20.679 20.269-48.018 31.432-76.982 31.432zm0-213.73719c-2.644 0-5.326.10271-7.973.30375-25.9977 1.97403-50.1352 13.60844-67.9673 32.76134-17.9254 19.2513-27.79689 44.3501-27.79689 70.6721 0 55.381 43.29039 100.892 98.55519 103.609h.001c1.705.085 3.447.128 5.18.128 27.314 0 53.097-10.527 72.599-29.642 20.08-19.674 31.139-45.988 31.139-74.096 0-16.5998-3.802-32.4585-11.3-47.1342-7.154-14.0005-17.599-26.4058-30.205-35.874-18.065-13.5602-39.584-20.72799-62.232-20.72799z" fill="#333"/></g></svg>