<svg fill="none" height="220" viewBox="0 0 220 220" width="220" xmlns="http://www.w3.org/2000/svg" xmlns:xlink="http://www.w3.org/1999/xlink"><clipPath id="a"><path d="m0 0h220v220h-220z"/></clipPath><g clip-path="url(#a)"><path d="m110 216.711c58.935 0 106.711-47.776 106.711-106.711 0-58.9346-47.776-106.71082-106.711-106.71082-58.9351 0-106.7113 47.77622-106.7113 106.71082 0 58.935 47.7762 106.711 106.7113 106.711z" fill="#f9dea0"/><path d="m110 207.59c53.897 0 97.59-43.692 97.59-97.59 0-53.8971-43.693-97.5895-97.59-97.5895-53.8976 0-97.59 43.6924-97.59 97.5895 0 53.898 43.6924 97.59 97.59 97.59z" fill="#fcbc1d"/><path d="m110 197.045c48.073 0 87.045-38.971 87.045-87.045 0-48.0733-38.972-87.0446-87.045-87.0446-48.0738 0-87.0451 38.9713-87.0451 87.0446 0 48.074 38.9713 87.045 87.0451 87.045z" fill="#f24125"/><path d="m164.335 166.887c-.652 0-1.305-.249-1.803-.747-.997-.996-.997-2.611 0-3.607 24.832-24.832 28.83-64.1213 9.505-93.4215-.776-1.1758-.451-2.7576.725-3.5335 1.177-.7758 2.759-.4504 3.533.7249 20.652 31.313 16.381 73.3001-10.156 99.8371-.498.498-1.151.747-1.804.747z" fill="#fff"/><path d="m168.249 62.4276c-.717 0-1.429-.3-1.933-.8856-1.204-1.3966-2.476-2.7673-3.784-4.0742-.996-.9957-.996-2.6107 0-3.607.996-.9962 2.611-.9962 3.607 0 1.396 1.3957 2.756 2.8597 4.041 4.3513.919 1.0671.8 2.6775-.267 3.5972-.482.4153-1.074.6183-1.664.6183z" fill="#fff"/><path d="m47.0518 156.634c-.8039 0-1.5941-.379-2.0909-1.087-10.5776-15.088-15.568-33.587-14.0514-52.087 1.5338-18.7187 9.6844-36.3333 22.9502-49.5992.9963-.9962 2.6108-.9962 3.607 0 .9963.9963.9963 2.6113 0 3.607-12.4119 12.4114-20.0376 28.8931-21.4735 46.4082-1.4191 17.317 3.2489 34.627 13.1445 48.743.8085 1.153.5289 2.744-.6244 3.552-.4448.313-.956.463-1.4615.463z" fill="#fff"/><path d="m55.6641 166.887c-.653 0-1.3054-.249-1.8033-.747-.9641-.964-1.9164-1.966-2.8306-2.979-.9442-1.046-.8615-2.658.1842-3.602s2.6582-.862 3.6024.184c.8564.948 1.7481 1.887 2.6505 2.79.9962.996.9962 2.611 0 3.607-.4979.498-1.1508.747-1.8032.747z" fill="#fff"/><g fill="#333"><path d="m198.193 51.2328c-.806 0-1.598-.3811-2.094-1.0917-19.668-28.2023-51.855-45.03947-86.099-45.03947-4.598 0-9.226.30199-13.7543.89779-1.3956.18364-2.678-.79934-2.8612-2.19601-.1836-1.39668.7999-2.67756 2.1966-2.861201 4.7479-.624883 9.5989-.94165968 14.4189-.94165968 35.911 0 69.662 17.65335068 90.283 47.22225068.806 1.1554.523 2.7454-.633 3.5509-.444.3101-.953.4591-1.457.4591z"/><path d="m78.6311 9.77168c-1.0922 0-2.1022-.7065-2.4378-1.80527-.4122-1.3472.3458-2.77295 1.693-3.18512 2.5434-.77791 5.1485-1.47064 7.743-2.05982 1.3727-.31116 2.7397.54888 3.0519 1.9226.3117 1.37372-.5489 2.7403-1.9226 3.05198-2.4725.56163-4.9557 1.22222-7.3802 1.96341-.2489.076-.5004.11222-.7473.11222z"/><path d="m30.7218 185.005c-.6907 0-1.3799-.28-1.8828-.829-18.597-20.332-28.839-46.674-28.839-74.176 0-22.1109 6.56254-43.4487 18.9781-61.7055 12.1155-17.816 28.9874-31.6012 48.7908-39.86496 1.2998-.54224 2.7939.07193 3.3361 1.37168.5422 1.30028-.0714 2.79388-1.3712 3.33608-18.8877 7.8812-34.9801 21.0303-46.5371 38.0255-11.8381 17.408-18.09562 37.7531-18.09562 58.8372 0 26.224 9.76702 51.344 27.50202 70.733.9508 1.04.8789 2.653-.1607 3.604-.4892.447-1.1059.668-1.7206.668z"/><path d="m110 220c-26.4269 0-51.991-9.548-71.9832-26.886-1.064-.923-1.1788-2.534-.2555-3.598.9228-1.064 2.5342-1.178 3.5978-.256 19.0648 16.534 43.4418 25.639 68.6409 25.639 57.841 0 104.899-47.058 104.899-104.899 0-16.1992-3.61-31.7412-10.73-46.1946-.622-1.2635-.102-2.7929 1.161-3.4152 1.264-.6223 2.793-.1025 3.415 1.161 7.468 15.1604 11.255 31.4609 11.255 48.4488 0 60.654-49.346 110-110 110z"/><path d="m157.435 197.427c-.893 0-1.759-.47-2.227-1.303-.69-1.228-.252-2.783.976-3.472 29.923-16.789 48.512-48.459 48.512-82.651 0-4.672-.345-9.367-1.025-13.9557-.207-1.3931.755-2.6903 2.149-2.8969 1.39-.2066 2.69.7549 2.896 2.1485.718 4.8351 1.081 9.7821 1.081 14.7041 0 36.034-19.586 69.409-51.116 87.099-.395.221-.823.327-1.246.327z"/><path d="m204.189 88.3196c-1.136 0-2.172-.7646-2.468-1.9154-5.139-19.9616-16.957-38.026-33.279-50.8649-16.829-13.2384-37.038-20.2355-58.442-20.2355-18.9436 0-37.2382 5.5994-52.9056 16.1934-1.1666.7891-2.7526.4825-3.5417-.6841-.7891-1.1671-.4826-2.7525.6841-3.5417 16.5147-11.1662 35.7968-17.0687 55.7632-17.0687 22.56 0 43.859 7.3751 61.596 21.3271 17.197 13.5271 29.649 32.5633 35.065 53.6027.351 1.364-.47 2.7546-1.834 3.1055-.213.0551-.428.0816-.638.0816z"/><path d="m41.0908 43.9968c-.6504 0-1.3013-.2474-1.7987-.7427-.9988-.9937-1.0028-2.6087-.0092-3.6069 1.6997-1.7084 3.4826-3.3754 5.299-4.9552 1.0626-.9244 2.674-.8121 3.5983.2504.9249 1.0626.8121 2.674-.2504 3.5983-1.7242 1.4997-3.4167 3.0821-5.0302 4.7042-.4994.501-1.1544.7519-1.8088.7519z"/><path d="m110 209.798c-55.0287 0-99.7979-44.77-99.7979-99.798 0-22.8368 7.9445-45.1744 22.3698-62.8991.8891-1.0927 2.4955-1.2574 3.5881-.3683 1.0927.8891 1.2574 2.4954.3683 3.5881-13.6872 16.8177-21.2251 38.0122-21.2251 59.6793 0 52.216 42.4803 94.697 94.6968 94.697 13.221 0 26.02-2.685 38.042-7.979 1.288-.568 2.794.016 3.362 1.306.567 1.289-.017 2.794-1.307 3.362-12.673 5.581-26.164 8.412-40.097 8.412z"/><path d="m22.9548 112.551c-1.4084 0-2.5505-1.142-2.5505-2.551 0-24.6696 9.816-47.655 27.6402-64.7217 1.0177-.9743 2.6322-.9391 3.606.078.9743 1.0177.9391 2.6322-.0781 3.606-16.8096 16.0959-26.067 37.7725-26.067 61.0377 0 1.409-1.1422 2.551-2.5506 2.551z"/><path d="m110 199.596c-21.7839 0-42.7815-7.912-59.1248-22.277-16.1934-14.234-26.7175-33.776-29.6343-55.028-.1913-1.395.7846-2.682 2.1802-2.873 1.3931-.191 2.6822.784 2.8735 2.18 2.75 20.037 12.6751 38.465 27.9483 51.889 15.4119 13.547 35.2138 21.008 55.7571 21.008 12.793 0 25.081-2.786 36.524-8.28 1.27-.61 2.794-.074 3.403 1.195.61 1.27.074 2.794-1.195 3.403-12.138 5.828-25.169 8.783-38.732 8.783z"/><path d="m155.317 186.885c-.859 0-1.698-.434-2.178-1.221-.735-1.202-.355-2.772.846-3.506 2.254-1.376 4.469-2.877 6.586-4.461 1.127-.844 2.726-.614 3.57.514s.614 2.726-.514 3.57c-2.244 1.679-4.593 3.271-6.982 4.73-.416.253-.875.374-1.328.374z"/><path d="m169.931 175.679c-.675 0-1.349-.267-1.85-.795-.97-1.021-.928-2.635.094-3.605 16.972-16.119 26.319-37.881 26.319-61.279 0-46.59-37.904-84.4941-84.494-84.4941-17.5138 0-34.3131 5.3092-48.5819 15.3543-1.1518.8111-2.7429.5346-3.5539-.6172-.8111-1.1519-.5346-2.7429.6172-3.554 15.1334-10.6531 32.9479-16.2842 51.5186-16.2842 49.403 0 89.595 40.1925 89.595 89.5952 0 24.81-9.911 47.887-27.908 64.978-.493.468-1.125.701-1.756.701z"/></g></g></svg>