<svg fill="none" height="220" viewBox="0 0 220 220" width="220" xmlns="http://www.w3.org/2000/svg"><path d="m205.011 122.206c0 26.586-10.918 50.617-28.518 67.861-12.745 12.494-28.998 21.42-47.144 25.172-6.247 1.298-12.717 1.977-19.348 1.977-1.593 0-3.174-.039-4.744-.117-49.4818-2.433-89.0137-42.728-90.2387-92.516-.0223-.713-.0278-1.425-.0278-2.144 0-.4 0-.801.0055-1.197.2617-26.5807 11.4421-50.5449 29.2649-67.6328 12.6391-12.1157 28.6245-20.7737 46.4306-24.443 3.9197-.8129 7.9286-1.3808 12.0095-1.6926 2.411-.1838 4.844-.2784 7.3-.2784 21.386 0 41.119 7.0656 56.998 18.9865 23.079 17.3328 38.012 44.9328 38.012 76.0243z" fill="#1aa5e2"/><path d="m151.589 53.7001c-.504 0-1.015-.1376-1.475-.4249-3.286-2.0584-6.746-3.8941-10.285-5.4559-1.406-.6209-2.043-2.2645-1.422-3.6715.621-1.4059 2.262-2.0434 3.671-1.4226 3.782 1.6698 7.48 3.6314 10.992 5.8313 1.303.8162 1.697 2.5339.881 3.8373-.528.843-1.435 1.3063-2.362 1.3063z" fill="#fff"/><path d="m164.45 186.072c-.744 0-1.486-.296-2.034-.882-1.05-1.123-.991-2.885.131-3.935 16.356-15.302 25.737-36.881 25.737-59.205 0-22.4522-9.004-43.3496-25.352-58.8439-1.116-1.0579-1.163-2.8196-.105-3.9359 1.057-1.1158 2.819-1.1637 3.935-.1058 17.469 16.5561 27.09 38.8889 27.09 62.8846 0 23.859-10.024 46.921-27.501 63.271-.536.503-1.22.752-1.901.752z" fill="#fff"/><path d="m152.74 195.238c-.911 0-1.804-.447-2.337-1.268-.838-1.29-.471-3.014.819-3.852 1.422-.923 2.832-1.902 4.19-2.91 1.235-.917 2.978-.658 3.894.577.917 1.235.658 2.978-.576 3.895-1.451 1.076-2.958 2.122-4.477 3.108-.468.305-.994.45-1.513.45z" fill="#fff"/><g fill="#b4cbf9"><path d="m58.2207 74.0462h-11.692c-1.5379 0-2.7839-1.2466-2.7839-2.7839s1.246-2.784 2.7839-2.784h11.692c1.5379 0 2.7839 1.2467 2.7839 2.784s-1.246 2.7839-2.7839 2.7839z"/><path d="m104.989 98.2654h-11.6921c-1.5379 0-2.784-1.2467-2.784-2.7839 0-1.5373 1.2461-2.784 2.784-2.784h11.6921c1.538 0 2.784 1.2467 2.784 2.784 0 1.5372-1.246 2.7839-2.784 2.7839z"/><path d="m173.47 98.2654h-11.692c-1.537 0-2.783-1.2467-2.783-2.7839 0-1.5373 1.246-2.784 2.783-2.784h11.692c1.538 0 2.784 1.2467 2.784 2.784 0 1.5372-1.246 2.7839-2.784 2.7839z"/><path d="m133.443 174.632h-8.166c-1.538 0-2.784-1.247-2.784-2.784s1.246-2.784 2.784-2.784h8.166c1.538 0 2.784 1.247 2.784 2.784s-1.247 2.784-2.784 2.784z"/><path d="m123.192 140.208h-8.166c-1.537 0-2.783-1.247-2.783-2.784 0-1.538 1.246-2.784 2.783-2.784h8.166c1.538 0 2.784 1.246 2.784 2.784 0 1.537-1.246 2.784-2.784 2.784z"/><path d="m87.2657 175.934h-8.1664c-1.5379 0-2.784-1.247-2.784-2.784 0-1.538 1.2461-2.784 2.784-2.784h8.1664c1.5378 0 2.7839 1.246 2.7839 2.784 0 1.537-1.2461 2.784-2.7839 2.784z"/><path d="m79.1923 166.747h-18.3741c-1.5378 0-2.7839-1.247-2.7839-2.784 0-1.538 1.2461-2.784 2.7839-2.784h18.3741c1.5378 0 2.7839 1.246 2.7839 2.784 0 1.537-1.2461 2.784-2.7839 2.784z"/><path d="m48.031 166.747h-5.0117c-1.5379 0-2.7839-1.247-2.7839-2.784 0-1.538 1.246-2.784 2.7839-2.784h5.0117c1.5378 0 2.7839 1.246 2.7839 2.784 0 1.537-1.2461 2.784-2.7839 2.784z"/><path d="m92.4617 108.287h-5.789c-1.5378 0-2.7839-1.247-2.7839-2.784s1.2461-2.784 2.7839-2.784h5.789c1.5378 0 2.7839 1.247 2.7839 2.784s-1.2461 2.784-2.7839 2.784z"/></g><path d="m129.349 215.239c.184.045.362.084.546.123-6.414 1.364-13.073 2.088-19.894 2.088-11.1025 0-21.765-1.904-31.6703-5.407-11.1135-3.925-21.2804-9.866-30.0554-17.377-19.8662-16.993-32.6389-42.037-33.257-70.083-.0223-.713-.0278-1.425-.0278-2.144 0-.4 0-.801.0055-1.197.3118-25.1609 10.4064-47.9725 26.6535-64.7931.8686-.8964 1.7595-1.7762 2.6615-2.6392-.0167-.0668-.039-.1336-.0501-.2004 12.6391-12.1157 28.6245-20.7738 46.4306-24.443.0612.0668.1169.1336.1726.2004 6.1803-1.2639 12.5779-1.9376 19.1369-1.9376 6.826 0 13.48.7294 19.9 2.0991-5.535 1.1804-10.897 2.834-16.03 4.9275-5.975 2.4444-11.643 5.4844-16.9379 9.0367.1169 1.019.1893 2.0546.1893 3.1069 0 14.8551-12.0434 26.8985-26.8985 26.8985-.6125 0-1.2194-.0279-1.8207-.0668-8.6358 14.3094-13.6135 31.08-13.6135 49.008 0 28.909 12.912 54.8 33.2848 72.227 8.775 7.511 18.9415 13.452 30.0555 17.377 3.647 1.292 7.389 2.361 11.219 3.196z" fill="#000" opacity=".25"/><path d="m109.999 220c-1.631 0-3.273-.041-4.88-.12-52.1015-2.563-92.9136-45.466-92.9136-97.674 0-24.8142 9.3068-48.4755 26.2047-66.6246 16.8101-18.0544 39.5671-29.0226 64.0789-30.8833 2.494-.1899 5.02-.2862 7.51-.2862 21.351 0 41.639 6.7583 58.67 19.5438 11.882 8.9237 21.726 20.6151 28.469 33.8127 7.07 13.8395 10.656 28.7906 10.656 44.4376 0 26.497-10.425 51.304-29.355 69.85-18.384 18.02-42.69 27.944-68.44 27.944zm0-190.0208c-2.349 0-4.734.0907-7.087.2706-23.1135 1.755-44.5733 12.0985-60.4267 29.1256-15.9353 17.1157-24.712 39.429-24.712 62.8306 0 49.235 38.4869 89.696 87.6197 92.113h.001c1.517.075 3.066.113 4.605.113 24.283 0 47.205-9.359 64.543-26.353 17.853-17.491 27.684-40.885 27.684-65.873 0-14.759-3.38-28.8576-10.046-41.9048-6.36-12.4476-15.646-23.4759-26.854-31.8934-16.059-12.0556-35.191-18.4286-55.327-18.4286z" fill="#333"/><path d="m45.1958 56.5753c14.8541 0 26.8957-12.0416 26.8957-26.8957s-12.0416-26.89566-26.8957-26.89566c-14.854 0-26.8956 12.04156-26.8956 26.89566s12.0416 26.8957 26.8956 26.8957z" fill="#f7db9c"/><path d="m18.3002 29.678c0 14.8551 12.0377 26.8985 26.8929 26.8985 2.3051 0 4.5489-.2896 6.6814-.8352-11.6202-2.9733-20.2114-13.5133-20.2114-26.0633s8.5912-23.08447 20.2114-26.05772c-2.1325-.54565-4.3763-.83518-6.6814-.83518-14.8552 0-26.8929 12.0378-26.8929 26.8929z" fill="#000" opacity=".25"/><path d="m45.1958 59.3592c-16.3657 0-29.6802-13.3144-29.6802-29.6796.0006-16.3651 13.3151-29.6796 29.6802-29.6796s29.6796 13.3145 29.6796 29.6796c0 16.3657-13.3139 29.6796-29.6796 29.6796zm0-53.79131c-13.2956 0-24.1123 10.81671-24.1123 24.11171 0 13.2956 10.8167 24.1118 24.1123 24.1118 13.295 0 24.1117-10.8168 24.1117-24.1118s-10.8167-24.11171-24.1117-24.11171z" fill="#333"/><path d="m38.5271 26.9875c-.1837 0-.3675-.0167-.5456-.0557-.1777-.0334-.3508-.089-.5179-.1559-.1726-.0723-.334-.1559-.4844-.2561-.1503-.1002-.2951-.2171-.4231-.3452-.1281-.128-.245-.2728-.3452-.4231-.1003-.1504-.1838-.3118-.2562-.4845-.0668-.167-.1225-.3396-.1559-.5178-.0384-.1781-.0556-.3619-.0556-.5456 0-.7294.2951-1.4477.8129-1.9655.1275-.128.2728-.245.4231-.3452.1509-.1002.3124-.1893.4844-.2561.1671-.0724.3397-.1225.5179-.1615.902-.1837 1.8658.1169 2.5116.7628.5178.5178.8185 1.2361.8185 1.9655 0 .1837-.0223.3675-.0557.5456-.0339.1782-.0891.3508-.1614.5178-.0669.1727-.1559.3341-.2562.4845-.1007.1503-.2177.2951-.3452.4231-.5183.5178-1.2372.8129-1.966.8129z" fill="#333"/><path d="m42.4246 44.248c-.1838 0-.3675-.0167-.5457-.0557-.1776-.0334-.3508-.0891-.5178-.1559-.1726-.0724-.3341-.1559-.4844-.2561s-.2951-.2172-.4232-.3452c-.5178-.5178-.8129-1.2361-.8129-1.971 0-.7294.2951-1.4477.8129-1.9655.1275-.1281.2729-.245.4232-.3452.1509-.1002.3124-.1893.4844-.2561.167-.0724.3396-.1225.5178-.1615.902-.1782 1.8658.1169 2.5117.7628.5178.5178.8185 1.2361.8185 1.9655 0 .7349-.3007 1.4532-.8185 1.971-.1281.128-.2673.245-.4237.3452-.1504.1002-.3118.1837-.4783.2561-.167.0668-.3452.1225-.5184.1559-.1837.039-.3675.0557-.5456.0557z" fill="#333"/><path d="m48.8276 25.0388c-.7349 0-1.4532-.2951-1.971-.8129-.128-.1281-.245-.2728-.3452-.4232-.1002-.1503-.1837-.3118-.2561-.4788-.0668-.1726-.1225-.3452-.1559-.5234-.0384-.1782-.0557-.3619-.0557-.5456 0-.1782.0167-.362.0557-.5401.0339-.1782.0891-.3564.1559-.5234.0724-.167.1559-.3285.2561-.4789.1002-.1559.2172-.295.3452-.4231.6459-.6459 1.6091-.9466 2.5111-.7628.1782.0334.3569.0891.5234.1615.1671.0668.3285.1503.4783.2561.1559.1002.2951.2171.4237.3452.1275.1281.2444.2672.3452.4231.1053.1504.1893.3119.2561.4789.0724.167.1275.3452.1615.5234.0384.1781.0557.3619.0557.5401 0 .1837-.0167.3674-.0557.5456-.034.1782-.0891.3508-.1615.5234-.0668.167-.1508.3285-.2561.4788-.1008.1504-.2177.2951-.3452.4232-.1281.128-.2672.245-.4237.3452-.1503.1002-.3118.1837-.4783.2561-.167.0668-.3452.1225-.5234.1559-.1781.039-.3619.0557-.5401.0557z" fill="#333"/><path d="m57.8956 45.4567c-.7121 0-1.4254-.2717-1.9682-.8151-1.0874-1.0874-1.0874-2.8496 0-3.9371 3.8323-3.8329 5.5044-9.3134 4.471-14.6596-.2912-1.5095.6954-2.97 2.2054-3.2617 1.5095-.2923 2.9699.6954 3.2611 2.2054 1.3842 7.1642-.8591 14.5111-6.001 19.653-.5429.5434-1.2561.8151-1.9683.8151z" fill="#fff"/><path d="m57.8981 18.4464c-.1837 0-.3675-.0223-.5456-.0557-.1776-.039-.3564-.0891-.5228-.1615-.1671-.0668-.3286-.1559-.4789-.2561s-.2951-.2171-.4231-.3452c-.1281-.128-.245-.2728-.3453-.4231-.1002-.1504-.1893-.3118-.2561-.4789-.0724-.167-.1225-.3452-.1614-.5234-.0335-.1781-.0502-.3619-.0502-.5401 0-.1837.0167-.3674.0502-.5456.0389-.1782.089-.3508.1614-.5234.0668-.167.1559-.3285.2561-.4788.1003-.1504.2172-.2951.3453-.4232.1275-.128.2728-.245.4231-.3452.1509-.1002.3124-.1893.4789-.2561.167-.0724.3452-.1225.5228-.1615.3569-.0724.7299-.0724 1.0857 0 .1782.039.3569.0891.5234.1615.167.0668.3285.1559.4783.2561.1509.1002.2951.2172.4237.3452.1275.1281.2444.2728.3446.4232.1008.1503.1899.3118.2567.4788.0724.1726.1225.3452.1609.5234.034.1782.0563.3619.0563.5456 0 .1782-.0223.362-.0563.5401-.0384.1782-.0885.3564-.1609.5234-.0668.1671-.1559.3285-.2567.4789-.1002.1503-.2171.2951-.3446.4231-.1281.1281-.2728.245-.4237.3452-.1504.1002-.3118.1893-.4783.2561-.167.0724-.3452.1225-.5234.1615-.1787.034-.3619.0557-.5401.0557z" fill="#fff"/></svg>