<?xml version="1.0" standalone="no"?>
<!DOCTYPE svg PUBLIC "-//W3C//DTD SVG 20010904//EN"
 "http://www.w3.org/TR/2001/REC-SVG-20010904/DTD/svg10.dtd">
<svg version="1.0" xmlns="http://www.w3.org/2000/svg"
 width="3430.000000pt" height="3430.000000pt" viewBox="0 0 3430.000000 3430.000000"
 preserveAspectRatio="xMidYMid meet">
<metadata>
Created by potrace 1.16, written by Peter Selinger 2001-2019
</metadata>
<g transform="translate(0.000000,3430.000000) scale(0.100000,-0.100000)"
fill="#000000" stroke="none">
<path d="M16555 34289 c-2731 -95 -5372 -827 -7740 -2147 -3722 -2074 -6554
-5470 -7912 -9487 -1204 -3563 -1204 -7447 0 -11010 1148 -3397 3356 -6366
6292 -8462 2610 -1863 5666 -2948 8870 -3148 2246 -140 4474 153 6590 868
3397 1148 6366 3356 8462 6292 1863 2610 2948 5666 3148 8870 140 2246 -153
4474 -868 6590 -1358 4017 -4190 7413 -7912 9487 -2225 1240 -4694 1963 -7250
2123 -536 33 -1158 42 -1680 24z m9493 -5205 c1237 -601 2133 -1422 2539
-2326 69 -154 169 -453 222 -667 127 -506 181 -1049 152 -1531 -6 -107 -14
-209 -17 -226 -6 -30 -4 -31 93 -80 127 -64 333 -201 453 -302 496 -416 808
-1040 845 -1692 l6 -105 -23 30 c-415 538 -1011 871 -1675 936 -70 7 -194 9
-308 6 -438 -13 -814 -127 -1195 -363 -345 -213 -656 -553 -845 -926 -165
-324 -245 -623 -262 -977 l-6 -144 -24 29 c-39 48 -138 212 -187 311 -334 671
-338 1444 -9 2120 l54 113 -98 108 c-524 577 -928 1305 -1098 1977 -134 529
-136 1102 -5 1745 108 532 302 1082 576 1635 115 232 166 323 172 305 3 -8
220 -657 483 -1442 264 -785 479 -1431 478 -1435 0 -5 -32 -30 -71 -58 -162
-115 -301 -333 -342 -537 -20 -97 -21 -285 -2 -375 36 -172 112 -316 233 -443
177 -187 371 -276 623 -287 146 -6 259 11 375 57 224 89 392 247 495 465 63
132 81 204 87 355 11 276 -81 506 -279 696 -175 168 -387 254 -626 254 l-99 0
-343 1023 c-189 562 -407 1212 -486 1445 -130 384 -141 422 -121 416 12 -3
118 -53 235 -110z m-19553 -6249 c710 -3 1317 -8 1350 -11 l60 -5 3275 -8394
c1801 -4617 3277 -8395 3280 -8395 11 0 2575 6466 2573 6490 0 14 -899 2343
-1996 5175 -1097 2833 -1994 5151 -1994 5152 5 4 3506 -23 3510 -27 2 -3 1400
-3582 3107 -7955 3396 -8703 3838 -9835 3876 -9937 6 -17 -83 -18 -1773 -18
l-1779 0 -1300 3355 c-714 1845 -1301 3355 -1305 3355 -3 0 -608 -1509 -1346
-3352 l-1341 -3353 -1685 -3 -1684 -2 -20 52 c-11 29 -1572 4060 -3467 8956
-1896 4897 -3450 8911 -3453 8919 -6 14 36 15 408 9 228 -3 995 -8 1704 -11z
m21593 -842 c273 -550 413 -874 537 -1247 127 -381 204 -734 247 -1126 19
-175 16 -624 -6 -800 -91 -754 -335 -1365 -844 -2119 -229 -341 -461 -641
-996 -1291 -436 -530 -620 -773 -885 -1170 -780 -1170 -1259 -2362 -1435
-3570 -99 -679 -99 -1206 -1 -2199 118 -1187 305 -2004 585 -2560 110 -219
242 -411 471 -686 145 -174 249 -304 249 -311 0 -7 -44 24 -200 142 -744 563
-1361 1278 -1810 2099 -446 813 -741 1795 -844 2805 -42 405 -57 950 -37 1295
59 998 292 1880 736 2780 373 756 879 1476 1598 2272 186 205 267 291 722 763
210 217 421 438 469 490 387 418 696 857 947 1345 306 594 480 1154 545 1757
20 181 22 568 5 733 -32 306 -110 633 -210 883 -11 28 -18 52 -16 52 3 0 81
-152 173 -337z"/>
</g>
</svg>
