<?xml version="1.0" standalone="no"?>
<!DOCTYPE svg PUBLIC "-//W3C//DTD SVG 20010904//EN"
 "http://www.w3.org/TR/2001/REC-SVG-20010904/DTD/svg10.dtd">
<svg version="1.0" xmlns="http://www.w3.org/2000/svg"
 width="2280.000000pt" height="978.000000pt" viewBox="0 0 2280.000000 978.000000"
 preserveAspectRatio="xMidYMid meet">

<g transform="translate(0.000000,978.000000) scale(0.100000,-0.100000)"
fill="#000000" stroke="none">
<path d="M14798 9475 c-56 -21 -94 -53 -122 -104 -84 -155 -23 -262 214 -377
153 -75 190 -110 190 -183 0 -62 -30 -108 -90 -139 -63 -33 -158 -26 -248 19
-62 30 -122 92 -122 127 0 11 -8 13 -37 7 -21 -4 -40 -8 -41 -10 -11 -11 25
-81 63 -123 52 -58 130 -96 232 -114 89 -15 162 -1 230 45 58 40 86 92 91 173
8 116 -49 180 -243 274 -168 80 -211 134 -185 228 13 49 66 98 116 108 53 10
136 -1 181 -25 43 -21 97 -77 108 -110 7 -24 14 -25 50 -9 21 10 25 16 20 37
-9 39 -55 100 -95 127 -81 56 -230 79 -312 49z"/>
<path d="M21585 9434 c-16 -2 -66 -9 -110 -15 -186 -24 -402 -98 -556 -189
-227 -135 -499 -394 -639 -609 l-16 -23 -84 18 c-101 21 -296 24 -385 5 -205
-42 -397 -143 -525 -276 l-45 -47 50 9 c28 4 115 8 195 7 171 0 261 -20 407
-89 113 -53 166 -89 255 -174 90 -84 148 -160 203 -264 153 -288 160 -614 20
-904 -25 -50 -67 -121 -95 -157 -56 -75 -55 -76 65 -31 295 109 532 365 613
661 l19 69 49 8 c325 54 640 171 871 326 358 240 630 687 773 1274 17 66 28
122 26 124 -2 2 -246 -142 -542 -321 l-538 -325 0 -118 c-1 -110 -3 -122 -31
-177 -38 -76 -105 -143 -181 -181 -54 -28 -67 -30 -164 -30 -93 0 -112 3 -162
27 -80 37 -152 107 -191 187 -29 60 -32 74 -32 161 0 91 2 100 37 172 45 89
94 138 187 182 60 28 75 31 161 31 81 0 103 -4 150 -26 31 -14 71 -40 90 -56
l35 -30 548 331 548 330 -63 18 c-87 25 -272 63 -398 83 -100 15 -477 29 -545
19z"/>
<path d="M12192 9338 c-10 -13 -15 -34 -13 -55 0 -7 12 -20 26 -29 23 -15 27
-15 50 0 27 18 34 63 13 84 -16 16 -63 15 -76 0z"/>
<path d="M13556 9313 c-70 -21 -166 -118 -191 -193 -42 -123 -13 -269 69 -354
65 -66 116 -89 213 -94 74 -4 88 -2 137 22 30 15 70 44 89 65 l34 38 7 -60
c13 -124 2 -178 -46 -233 -49 -55 -102 -78 -178 -78 -79 1 -132 25 -183 85
l-36 41 -30 -18 c-17 -10 -31 -22 -31 -27 0 -5 26 -34 58 -66 66 -66 128 -91
226 -91 92 0 150 24 217 89 92 90 94 100 75 504 -9 182 -16 344 -16 360 0 25
-3 27 -40 27 l-40 0 0 -57 0 -57 -37 36 c-77 74 -183 96 -297 61z m234 -90
c29 -16 65 -44 80 -63 26 -33 28 -43 33 -153 4 -117 4 -118 -24 -157 -16 -22
-48 -52 -71 -67 -35 -24 -54 -28 -122 -31 -75 -3 -85 -1 -134 28 -187 109
-165 379 38 459 14 5 53 10 86 10 49 1 73 -5 114 -26z"/>
<path d="M15536 9239 c-2 -8 -14 -45 -27 -84 -12 -38 -23 -71 -24 -72 -1 -2
-25 4 -55 13 -58 17 -70 12 -73 -31 -2 -26 2 -29 51 -43 28 -8 52 -19 52 -24
0 -5 -25 -91 -56 -191 -34 -112 -55 -200 -55 -229 0 -110 81 -188 195 -188 30
0 58 4 61 10 3 5 -1 22 -9 38 -13 25 -21 29 -55 28 -33 0 -47 6 -75 33 -19 18
-37 45 -41 59 -4 17 13 89 51 216 31 105 60 194 63 198 4 4 43 -3 86 -17 44
-14 85 -25 92 -25 8 0 33 48 33 66 0 2 -39 15 -87 30 -49 14 -91 28 -94 30 -4
2 5 42 19 89 14 47 23 87 21 90 -3 3 -20 8 -37 11 -22 5 -33 2 -36 -7z"/>
<path d="M12835 9208 c-51 -18 -84 -48 -114 -100 -31 -54 -33 -53 -47 25 -6
37 -7 37 -43 31 -20 -4 -37 -8 -39 -9 -3 -3 96 -535 113 -613 5 -20 10 -22 43
-16 20 4 38 7 39 8 0 0 -5 35 -13 76 -63 329 -64 335 -50 390 41 159 252 189
327 45 12 -23 36 -124 58 -240 l38 -200 29 4 c54 6 55 -8 -2 279 -19 95 -43
190 -54 212 -49 96 -179 145 -285 108z"/>
<path d="M11733 9075 c-18 -8 -33 -16 -33 -19 0 -3 13 -39 30 -82 16 -42 27
-80 25 -85 -3 -4 -28 -15 -55 -24 -28 -9 -50 -21 -50 -25 0 -7 18 -54 26 -68
0 -1 23 7 49 18 27 12 54 19 60 16 6 -2 44 -90 84 -195 63 -165 79 -196 112
-225 82 -75 195 -70 273 13 l29 30 -37 17 c-35 17 -36 17 -58 -3 -13 -12 -35
-25 -50 -28 -33 -8 -90 9 -113 34 -16 18 -155 364 -155 387 0 6 40 26 89 44
87 33 89 34 80 59 -5 14 -11 31 -14 38 -3 8 -31 1 -91 -23 -48 -19 -90 -34
-93 -34 -4 0 -19 35 -35 78 -16 42 -32 80 -35 84 -3 4 -21 0 -38 -7z"/>
<path d="M12295 9083 c-11 -3 -24 -9 -29 -13 -5 -5 28 -137 80 -315 l88 -306
36 6 c19 4 36 8 38 10 2 2 -141 504 -169 593 -6 17 -14 31 -17 31 -4 -1 -16
-3 -27 -6z"/>
<path d="M11282 8988 c-13 -13 -16 -57 -4 -74 26 -38 92 -14 92 34 0 35 -16
52 -50 52 -14 0 -31 -5 -38 -12z"/>
<path d="M16015 8858 c-16 -6 -42 -20 -57 -30 l-28 -19 31 -26 c30 -25 31 -26
65 -10 76 37 173 9 222 -63 19 -28 23 -44 19 -85 -2 -27 -11 -67 -20 -89 l-17
-38 -35 31 c-81 71 -210 110 -302 91 -115 -24 -174 -146 -124 -256 46 -100
199 -152 321 -109 23 8 44 15 46 15 3 0 -3 -16 -11 -36 -8 -20 -15 -42 -15
-49 0 -12 57 -42 65 -34 2 2 42 101 89 220 92 230 102 281 72 352 -17 42 -68
92 -120 119 -48 25 -156 33 -201 16z m80 -338 c33 -16 73 -40 89 -53 l29 -24
-29 -53 c-34 -63 -78 -90 -145 -90 -142 0 -251 114 -192 200 46 67 135 74 248
20z"/>
<path d="M16707 8720 c-20 -44 -39 -80 -42 -80 -3 0 -23 9 -45 20 -51 26 -64
25 -78 -5 -17 -38 -16 -39 38 -65 28 -13 50 -27 50 -31 0 -4 -36 -88 -81 -186
-45 -98 -83 -194 -86 -213 -16 -113 78 -219 195 -220 46 0 51 9 30 55 -8 17
-19 25 -37 25 -55 1 -111 58 -111 114 0 23 97 252 156 369 16 30 5 33 136 -27
l58 -26 15 37 c8 20 14 37 13 38 -2 1 -42 19 -89 40 l-87 38 15 36 c9 20 24
53 34 73 11 21 19 43 19 51 0 12 -39 37 -59 37 -4 0 -24 -36 -44 -80z"/>
<path d="M11418 8744 c-16 -8 -28 -17 -28 -19 0 -6 280 -568 286 -574 2 -3 20
3 39 12 l35 17 -145 290 c-80 159 -148 290 -153 290 -4 -1 -19 -8 -34 -16z"/>
<path d="M17186 8667 c-33 -50 21 -105 70 -72 26 17 33 62 12 83 -20 20 -66
14 -82 -11z"/>
<path d="M11157 8596 c-79 -29 -126 -94 -139 -196 -3 -24 -5 -23 -32 18 -32
47 -40 50 -75 23 l-25 -19 170 -262 c93 -145 172 -267 175 -273 7 -10 69 21
69 35 0 5 -44 77 -98 161 -143 220 -152 242 -132 319 15 54 76 114 125 124 33
6 35 9 35 45 0 44 -9 47 -73 25z"/>
<path d="M10449 8467 l-27 -32 200 -324 c109 -178 197 -325 195 -327 -2 -2
-144 56 -316 128 -311 131 -312 131 -332 112 -19 -20 -19 -21 141 -318 89
-164 160 -300 157 -302 -2 -2 -156 70 -342 161 l-339 166 -30 -30 -30 -30 425
-209 424 -209 24 22 24 23 -163 302 c-89 166 -160 303 -158 304 1 2 142 -55
313 -126 439 -184 433 -202 111 321 -136 220 -249 401 -249 400 -1 0 -14 -15
-28 -32z"/>
<path d="M17046 8308 c-30 -73 -87 -207 -125 -298 l-70 -165 27 -12 c15 -7 32
-12 38 -13 10 0 254 564 254 587 0 10 -43 33 -59 33 -5 0 -34 -60 -65 -132z"/>
<path d="M17488 8257 c-134 -51 -204 -133 -229 -270 -11 -58 -10 -75 5 -129 9
-35 33 -86 52 -115 142 -209 470 -179 576 52 19 41 23 67 23 145 0 84 -3 101
-27 145 -34 65 -101 129 -163 156 -62 28 -183 36 -237 16z m207 -91 c94 -43
145 -125 145 -231 0 -188 -202 -311 -370 -225 -41 21 -90 73 -117 123 -26 48
-24 160 4 213 68 128 212 179 338 120z"/>
<path d="M13900 8254 c-715 -60 -1324 -216 -1867 -479 -565 -273 -1006 -659
-1268 -1109 l-29 -49 60 40 c33 23 118 89 189 148 168 138 267 203 429 280
232 112 485 197 911 305 649 165 974 207 1542 197 398 -7 653 -34 1028 -108
409 -82 703 -171 1275 -384 642 -240 939 -324 1300 -372 189 -25 514 -22 700
6 353 53 648 151 995 330 166 85 449 250 443 257 -2 2 -48 -15 -101 -37 -402
-165 -996 -199 -1567 -88 -360 69 -568 141 -1074 371 -380 172 -577 256 -780
333 -468 175 -936 290 -1391 341 -132 15 -685 27 -795 18z"/>
<path d="M18361 8179 c-18 -5 -55 -32 -81 -58 -27 -27 -51 -46 -54 -43 -3 3
-6 25 -6 49 l0 43 -41 0 -41 0 6 -117 c3 -65 8 -212 12 -326 6 -207 6 -209 28
-203 11 3 29 6 40 6 18 0 18 9 11 208 -6 182 -5 213 10 248 53 127 195 165
288 76 55 -52 59 -70 67 -302 5 -118 9 -216 9 -217 1 -2 19 -3 41 -3 l39 0 -5
138 c-11 340 -15 365 -66 427 -17 19 -48 45 -71 56 -47 24 -137 33 -186 18z"/>
<path d="M2120 7280 c0 -3 440 -1142 977 -2532 l978 -2528 475 0 475 0 376
943 c208 518 380 942 384 942 4 0 155 -382 336 -850 181 -467 346 -892 365
-942 l36 -93 474 0 474 0 10 22 c5 13 448 1122 985 2464 678 1697 975 2453
975 2478 0 50 -15 75 -55 92 -53 22 -853 21 -896 -1 -86 -45 -64 -205 71 -522
130 -305 166 -462 157 -688 -3 -81 -12 -165 -22 -198 -13 -47 -1222 -3168
-1278 -3297 -13 -31 -15 -33 -23 -15 -4 11 -420 1078 -925 2370 l-917 2350
-493 5 c-272 3 -495 5 -496 5 -1 0 253 -656 563 -1458 l565 -1459 -363 -913
c-200 -503 -366 -911 -370 -907 -4 4 -421 1068 -927 2366 -506 1297 -922 2360
-924 2362 -5 5 -987 9 -987 4z"/>
<path d="M17015 6108 c-135 -274 -314 -481 -500 -580 l-80 -43 -220 -5 -220
-5 -3 -47 -3 -48 198 -2 198 -3 5 -1395 c5 -1267 7 -1400 22 -1450 47 -153 73
-196 141 -233 41 -22 50 -22 417 -25 217 -1 381 2 389 7 11 7 -1 27 -59 92
-40 45 -80 99 -89 118 -14 33 -16 170 -19 1464 l-2 1427 300 0 300 0 0 50 0
50 -300 0 -300 0 0 365 0 365 -62 0 -63 -1 -50 -101z"/>
<path d="M13745 5824 c-619 -65 -1097 -276 -1437 -633 -183 -192 -291 -414
-345 -711 -27 -145 -24 -420 5 -567 91 -456 358 -817 842 -1140 212 -142 410
-245 890 -463 707 -322 1044 -535 1266 -802 238 -285 297 -595 165 -864 -105
-211 -366 -375 -710 -445 -127 -26 -377 -36 -507 -19 -443 55 -798 283 -879
564 -24 81 -17 215 13 272 43 84 128 127 204 105 103 -31 125 -110 66 -237
-27 -58 -32 -81 -33 -146 0 -69 3 -80 30 -119 39 -56 100 -102 172 -130 50
-20 76 -23 183 -23 110 0 135 4 203 27 290 100 408 341 353 716 -81 548 -455
927 -1040 1053 -136 29 -428 32 -556 5 -532 -112 -820 -434 -820 -914 1 -531
398 -997 1031 -1207 265 -89 487 -125 814 -133 508 -13 1078 76 1464 227 289
113 578 306 759 507 370 411 486 905 326 1389 -34 103 -120 284 -179 376 -207
321 -520 591 -970 838 -181 100 -280 147 -715 342 -736 329 -1021 493 -1207
692 -205 220 -246 445 -126 686 49 98 186 238 291 298 209 119 482 185 767
185 189 0 274 -17 412 -84 212 -102 343 -291 343 -494 0 -34 -13 -142 -30
-240 -34 -203 -36 -256 -15 -340 23 -86 61 -149 131 -215 73 -68 157 -112 268
-140 208 -53 445 9 597 157 196 189 220 482 65 798 -114 233 -331 427 -646
579 -159 76 -286 122 -479 170 -240 60 -382 77 -671 81 -140 2 -273 1 -295 -1z"/>
<path d="M9595 5454 c-158 -160 -335 -232 -607 -250 l-108 -7 0 -1463 0 -1464
378 0 c207 0 387 3 399 6 l22 6 3 1122 c4 1258 -3 1148 79 1306 53 101 126
197 235 306 165 164 317 253 449 262 91 6 134 -8 178 -57 62 -68 78 -132 87
-336 5 -129 12 -194 25 -230 54 -153 175 -229 365 -227 261 2 401 150 388 411
-6 115 -40 211 -112 319 -138 207 -378 312 -716 312 -198 0 -378 -53 -546
-162 -112 -72 -272 -238 -359 -371 l-70 -107 -5 353 -5 352 -80 -81z"/>
<path d="M19042 5480 c-244 -19 -464 -75 -625 -157 -224 -115 -370 -338 -370
-563 1 -206 83 -352 232 -412 49 -20 73 -23 191 -23 117 1 143 4 195 24 152
59 225 216 170 361 -68 177 -78 216 -79 295 0 66 4 90 25 135 40 86 127 173
217 217 75 37 78 38 191 37 93 0 129 -5 181 -23 135 -47 212 -121 246 -239 14
-49 14 -57 -5 -134 -66 -259 -229 -438 -628 -689 -455 -287 -778 -545 -923
-738 -214 -283 -264 -709 -118 -1009 93 -192 322 -322 598 -339 350 -22 859
144 1078 350 l32 31 0 -30 c0 -51 30 -147 56 -182 43 -55 100 -90 177 -107 59
-13 130 -15 392 -13 l320 3 -31 30 c-65 62 -95 161 -110 365 -4 58 -8 584 -8
1170 l-1 1065 -23 70 c-13 39 -35 90 -50 115 -39 68 -128 156 -207 205 -111
68 -330 137 -543 171 -118 18 -426 26 -580 14z m560 -2811 c-65 -60 -149 -115
-225 -147 -84 -34 -230 -42 -323 -17 -178 48 -328 221 -384 440 -30 115 -37
295 -16 415 54 306 174 493 591 920 176 180 281 309 361 439 l39 64 3 -1034 3
-1034 -49 -46z"/>
<path d="M11418 4139 c-103 -66 -282 -110 -535 -131 l-143 -12 0 -863 0 -863
365 0 c283 0 367 3 370 12 3 7 4 436 3 954 l-3 940 -57 -37z"/>
</g>
</svg>
