<svg xmlns="http://www.w3.org/2000/svg" width="2280" height="978" viewBox="0 0 2280 978" version="1.1"><path d="M 1482.718 29.041 C 1477.037 30.455, 1473.733 32.447, 1469.741 36.864 C 1465.697 41.341, 1464.014 46.179, 1464.006 53.349 C 1463.994 63.420, 1470.311 70.240, 1486.983 78.154 C 1500.279 84.466, 1504.453 87.328, 1506.426 91.486 C 1508.516 95.890, 1508.411 98.520, 1505.940 103.624 C 1502.920 109.862, 1497.226 112.407, 1487.673 111.789 C 1475.721 111.015, 1467.155 106.105, 1463.459 97.910 C 1462.230 95.183, 1461.190 94.111, 1460.091 94.436 C 1459.216 94.694, 1457.249 95.204, 1455.719 95.569 C 1452.521 96.332, 1452.652 97.802, 1456.515 104.500 C 1462.588 115.030, 1474.771 120.933, 1490.500 120.966 C 1505.373 120.997, 1516.989 110.707, 1516.989 97.500 C 1516.989 86.692, 1510.719 79.859, 1492.684 71.012 C 1477.398 63.514, 1473 59.410, 1473 52.645 C 1473 44.163, 1480.231 37.551, 1489.459 37.596 C 1499.841 37.645, 1509.442 43.089, 1512.661 50.750 C 1514.240 54.508, 1514.015 54.439, 1518.532 52.551 C 1522.543 50.875, 1522.676 50.245, 1520.084 45.165 C 1514.228 33.685, 1495.877 25.767, 1482.718 29.041 M 2164.500 33.660 C 2141.024 35.064, 2119.051 40.502, 2101.500 49.251 C 2077.375 61.278, 2051.666 83.206, 2033.990 106.833 L 2025.937 117.599 2017.218 115.756 C 2005.587 113.297, 1984.083 113.816, 1972.825 116.827 C 1955.874 121.361, 1941.643 129.161, 1928.750 140.986 C 1921.724 147.431, 1920.405 149.668, 1924.250 148.620 C 1925.487 148.283, 1930.652 147.507, 1935.727 146.895 C 1946.366 145.613, 1960.213 146.825, 1972.208 150.087 C 1983.249 153.090, 1998.505 161.058, 2007.563 168.552 C 2020.729 179.445, 2028.416 189.276, 2035.563 204.365 C 2050.939 236.824, 2047.159 275.564, 2025.750 304.940 C 2023.138 308.524, 2021 311.763, 2021 312.137 C 2021 313.261, 2032.719 309.355, 2040.661 305.584 C 2056.232 298.189, 2072.242 284.458, 2081.344 270.692 C 2086.200 263.347, 2092.317 250.286, 2094.547 242.500 C 2095.492 239.200, 2096.711 236.214, 2097.255 235.865 C 2097.799 235.516, 2100.872 234.933, 2104.082 234.570 C 2107.293 234.207, 2115.225 232.611, 2121.710 231.023 C 2153.866 223.150, 2185.581 207.207, 2205.196 189.055 C 2228.978 167.046, 2249.328 131.327, 2261.458 90.299 C 2265.407 76.943, 2269.112 61, 2268.267 61 C 2267.973 61, 2243.032 75.901, 2212.842 94.113 L 2157.952 127.226 2158.726 130.863 C 2159.152 132.863, 2159.463 137.692, 2159.417 141.594 C 2159.258 155.233, 2150.597 167.990, 2137.201 174.315 C 2131.260 177.119, 2129.535 177.471, 2122 177.416 C 2110.820 177.334, 2103.941 174.691, 2096.166 167.493 C 2072.691 145.760, 2084.530 107.099, 2116.206 102.049 C 2126.043 100.482, 2138.275 103.790, 2145.235 109.901 C 2147.176 111.606, 2149.069 113, 2149.442 113 C 2150.001 113, 2257.463 48.519, 2258.971 47.279 C 2260.057 46.386, 2255.782 44.893, 2244 42.050 C 2225.926 37.688, 2210.616 35.284, 2193.170 34.068 C 2178.428 33.041, 2175.533 33, 2164.500 33.660 M 1219 44 C 1215.056 47.944, 1217.644 54, 1223.272 54 C 1226.073 54, 1229 50.820, 1229 47.777 C 1229 45.391, 1225.479 42, 1223 42 C 1221.900 42, 1220.100 42.900, 1219 44 M 1357.951 45.303 C 1348.923 47.855, 1340.753 54.976, 1336.638 63.878 C 1333.495 70.677, 1333.579 85.491, 1336.799 92.500 C 1339.693 98.800, 1346.034 105.391, 1352.500 108.820 C 1356.777 111.088, 1358.730 111.472, 1366 111.474 C 1375.806 111.476, 1380.371 109.629, 1387.041 102.959 L 1391 99 1391 108.935 C 1391 120.252, 1390.430 122.302, 1385.826 127.546 C 1376.938 137.668, 1362.250 137.676, 1352.384 127.563 L 1347.268 122.319 1343.601 124.200 L 1339.935 126.081 1341.717 129.134 C 1344.279 133.519, 1350.524 138.894, 1355.878 141.320 C 1362.483 144.312, 1375.685 144.333, 1382.122 141.360 C 1388.651 138.345, 1394.919 132.345, 1397.647 126.500 C 1399.541 122.442, 1399.984 119.804, 1400.001 112.500 C 1400.026 101.849, 1398.170 56.778, 1397.396 49.250 L 1396.856 44 1392.288 44 L 1387.720 44 1388.302 49.640 L 1388.884 55.280 1385.692 52.248 C 1378.470 45.388, 1367.427 42.623, 1357.951 45.303 M 1550.942 60.500 C 1549.631 65.175, 1548.279 69, 1547.938 69 C 1547.597 69, 1545.109 68.330, 1542.409 67.511 C 1539.709 66.692, 1537.234 66.017, 1536.908 66.011 C 1536.394 66.001, 1534 72.798, 1534 74.266 C 1534 74.560, 1536.285 75.349, 1539.077 76.018 C 1541.869 76.688, 1544.369 77.798, 1544.632 78.484 C 1544.895 79.170, 1542.559 88.207, 1539.440 98.567 C 1533.091 119.656, 1532.812 124.096, 1537.404 131.035 C 1541.338 136.979, 1546.304 139.485, 1554.164 139.493 C 1557.829 139.497, 1561.123 139.206, 1561.484 138.847 C 1561.844 138.488, 1561.237 136.424, 1560.133 134.261 C 1558.369 130.803, 1557.773 130.380, 1555.196 130.758 C 1549.448 131.602, 1543 125.894, 1543 119.962 C 1543 117.897, 1553.627 82.040, 1554.496 81.170 C 1554.732 80.934, 1558.825 81.957, 1563.591 83.443 C 1568.356 84.929, 1572.587 85.774, 1572.991 85.322 C 1574.243 83.923, 1575.919 78.067, 1575.190 77.641 C 1574.811 77.419, 1570.563 76.044, 1565.750 74.586 C 1560.938 73.129, 1557.007 71.838, 1557.015 71.718 C 1557.023 71.598, 1558.148 67.900, 1559.515 63.500 C 1560.882 59.100, 1562 55.184, 1562 54.797 C 1562 54.200, 1555.692 52.022, 1553.913 52.006 C 1553.590 52.003, 1552.253 55.825, 1550.942 60.500 M 1360.713 54.422 C 1343.880 58.949, 1337.329 80.678, 1348.768 94.042 C 1353.978 100.129, 1359.130 102.440, 1367.500 102.444 C 1376.996 102.448, 1384.736 98.175, 1388.589 90.800 C 1390.107 87.895, 1390.310 79.344, 1389.093 69.571 C 1388.430 64.242, 1387.920 63.257, 1384.050 59.822 C 1379.910 56.148, 1372.037 52.922, 1367.568 53.067 C 1366.431 53.105, 1363.346 53.714, 1360.713 54.422 M 1285.513 56.134 C 1280.126 57.395, 1275.963 60.415, 1272.240 65.765 L 1269.133 70.228 1268.438 66.364 C 1267.393 60.550, 1267.047 60.266, 1262.204 61.257 C 1258.856 61.942, 1258.017 62.507, 1258.401 63.818 C 1258.672 64.743, 1261.441 79, 1264.555 95.500 C 1267.668 112, 1270.390 125.791, 1270.603 126.146 C 1271.013 126.831, 1277.773 125.560, 1278.711 124.622 C 1279.016 124.318, 1277.627 115.391, 1275.625 104.784 C 1273.623 94.178, 1272.023 84.150, 1272.069 82.500 C 1272.434 69.383, 1285.894 61.059, 1297.688 66.656 C 1304.041 69.671, 1305.677 73.642, 1310.180 96.963 L 1314.282 118.210 1318.354 117.559 C 1320.593 117.201, 1322.594 116.739, 1322.801 116.533 C 1323.007 116.326, 1321.303 106.334, 1319.014 94.329 C 1313.515 65.495, 1310.570 60.083, 1298.386 56.416 C 1293.118 54.830, 1291.258 54.789, 1285.513 56.134 M 1228.750 69.203 C 1226.688 69.750, 1225 70.533, 1225 70.941 C 1225 72.234, 1242.756 133.090, 1243.289 133.622 C 1243.569 133.902, 1245.609 133.644, 1247.823 133.048 L 1251.848 131.964 1250.059 125.732 C 1249.075 122.304, 1244.947 107.917, 1240.885 93.760 C 1236.823 79.603, 1233.275 68.062, 1233 68.113 C 1232.725 68.165, 1230.813 68.655, 1228.750 69.203 M 1172 70.264 C 1170.625 70.885, 1169.377 71.465, 1169.228 71.552 C 1169.078 71.640, 1170.369 75.413, 1172.096 79.937 C 1173.824 84.461, 1174.846 88.502, 1174.369 88.916 C 1173.891 89.330, 1171.362 90.456, 1168.750 91.417 C 1166.138 92.379, 1164 93.298, 1164 93.461 C 1164 94.863, 1167.237 101, 1167.976 101 C 1168.499 101, 1171.129 100.132, 1173.821 99.070 L 1178.717 97.141 1182.551 107.320 C 1190.495 128.412, 1193.906 136.272, 1196.169 138.696 C 1204.320 147.431, 1218.757 147.020, 1226.488 137.832 L 1229.227 134.576 1225.011 132.786 L 1220.795 130.995 1217.821 133.497 C 1211.532 138.789, 1202.766 135.518, 1199.699 126.736 C 1198.886 124.406, 1195.743 116.102, 1192.715 108.282 L 1187.209 94.065 1195.355 90.945 C 1199.835 89.229, 1203.886 87.456, 1204.358 87.005 C 1205.399 86.009, 1203.238 79, 1201.890 79 C 1201.365 79, 1197.356 80.380, 1192.981 82.067 C 1188.607 83.755, 1184.618 84.882, 1184.117 84.572 C 1183.616 84.263, 1181.975 80.632, 1180.469 76.505 C 1177.592 68.616, 1176.854 68.072, 1172 70.264 M 1128 79 C 1125.504 81.496, 1125.429 85.173, 1127.829 87.345 C 1131.656 90.809, 1138 88.205, 1138 83.171 C 1138 80.450, 1134.646 77, 1132 77 C 1130.900 77, 1129.100 77.900, 1128 79 M 1602 91.512 C 1599.525 92.329, 1596.387 93.863, 1595.026 94.922 C 1592.557 96.842, 1592.556 96.852, 1594.515 99.016 C 1597.711 102.548, 1599.708 103.229, 1602.240 101.649 C 1608.083 98.001, 1615.623 98.974, 1621.499 104.133 C 1626.291 108.340, 1627.453 113.105, 1625.389 120.087 C 1624.509 123.064, 1623.595 125.822, 1623.357 126.215 C 1623.120 126.608, 1621.005 125.464, 1618.657 123.672 C 1609.436 116.633, 1595.102 113.161, 1586.705 115.932 C 1578.660 118.588, 1572.712 129.584, 1574.936 137.692 C 1577.227 146.042, 1583.968 151.954, 1593.675 154.126 C 1599.040 155.327, 1605.631 154.702, 1611.319 152.452 C 1613.046 151.769, 1613.059 151.924, 1611.569 155.489 C 1610.706 157.554, 1610 159.633, 1610 160.109 C 1610 161.353, 1617.222 164.194, 1618.042 163.273 C 1619.714 161.395, 1635.055 120.876, 1635.600 116.899 C 1637.854 100.459, 1618.717 86, 1602 91.512 M 1670.561 105 C 1668.496 109.400, 1666.383 113, 1665.864 113 C 1665.345 113, 1663.156 112.100, 1661 111 C 1658.844 109.900, 1656.618 109, 1656.053 109 C 1655.133 109, 1651.596 115.982, 1652.237 116.533 C 1652.382 116.658, 1654.826 117.928, 1657.669 119.355 L 1662.837 121.951 1654.419 140.417 C 1647.057 156.566, 1646 159.587, 1646 164.491 C 1646 176.121, 1653.735 184.066, 1665.144 184.154 C 1667.892 184.176, 1670.389 183.944, 1670.694 183.639 C 1670.999 183.335, 1670.567 181.379, 1669.735 179.293 C 1668.601 176.447, 1667.633 175.482, 1665.861 175.428 C 1659.591 175.238, 1654.800 170.572, 1654.800 164.656 C 1654.800 161.808, 1668.758 129.053, 1670.988 126.666 C 1671.417 126.207, 1675.258 127.445, 1679.525 129.416 C 1686.486 132.633, 1690 133.708, 1690 132.622 C 1690 132.414, 1690.647 130.695, 1691.438 128.802 L 1692.877 125.360 1684.188 121.503 C 1679.410 119.382, 1675.372 117.560, 1675.215 117.455 C 1675.059 117.350, 1676.521 113.773, 1678.465 109.507 C 1680.409 105.241, 1682 101.440, 1682 101.060 C 1682 100.492, 1675.656 97, 1674.624 97 C 1674.454 97, 1672.626 100.600, 1670.561 105 M 1141.686 103.101 C 1139.588 104.208, 1138.013 105.448, 1138.186 105.856 C 1138.695 107.057, 1167.252 163.472, 1167.514 163.793 C 1167.975 164.359, 1175 160.620, 1175 159.808 C 1175 158.918, 1146.153 100.971, 1145.747 101.044 C 1145.611 101.069, 1143.784 101.994, 1141.686 103.101 M 1719.223 109.557 C 1714.684 112.736, 1717.501 120, 1723.272 120 C 1726.073 120, 1729 116.820, 1729 113.777 C 1729 111.485, 1725.515 108, 1723.223 108 C 1722.245 108, 1720.445 108.701, 1719.223 109.557 M 1117.456 117.125 C 1109.714 118.869, 1102.081 127.833, 1102.022 135.250 C 1101.992 138.968, 1100.601 138.709, 1098 134.500 C 1096.810 132.575, 1095.589 131, 1095.286 131 C 1094.564 131, 1088 135.061, 1088 135.509 C 1088 135.834, 1122.854 190.131, 1123.506 190.822 C 1124.236 191.595, 1130.946 186.384, 1130.562 185.343 C 1130.326 184.706, 1125.545 177.082, 1119.935 168.400 C 1114.326 159.718, 1109.073 151.027, 1108.262 149.086 C 1106.368 144.552, 1107.077 136.721, 1109.702 133.176 C 1112.378 129.563, 1117.784 126, 1120.589 126 C 1121.850 126, 1123.170 125.533, 1123.523 124.963 C 1124.294 123.715, 1123.102 115.955, 1122.162 116.107 C 1121.798 116.166, 1119.680 116.624, 1117.456 117.125 M 1589.500 124.095 C 1583.900 127.359, 1582.258 134.745, 1585.972 139.960 C 1588.657 143.732, 1597.226 147.278, 1603.663 147.282 C 1610.537 147.287, 1614.836 144.700, 1618 138.655 L 1620.500 133.878 1618.003 131.829 C 1616.630 130.702, 1612.810 128.419, 1609.516 126.756 C 1602.850 123.391, 1592.962 122.076, 1589.500 124.095 M 1044.557 130.940 C 1043.008 132.557, 1041.975 134.470, 1042.262 135.190 C 1042.549 135.911, 1051.369 150.426, 1061.863 167.446 C 1072.356 184.466, 1080.817 198.516, 1080.666 198.668 C 1080.514 198.819, 1066.540 193.082, 1049.612 185.918 C 1017.659 172.395, 1017.015 172.227, 1015.499 177.004 C 1015 178.576, 1026.544 201.072, 1044.114 232.764 L 1047.033 238.027 1029.766 229.375 C 1020.270 224.615, 1004.777 217.010, 995.338 212.472 L 978.176 204.223 974.903 207.600 L 971.630 210.977 1014.311 231.988 C 1037.785 243.545, 1057.365 253, 1057.821 253 C 1058.278 253, 1059.629 251.960, 1060.823 250.689 L 1062.994 248.377 1046.997 218.619 C 1038.199 202.252, 1031 188.721, 1031 188.549 C 1031 188.377, 1044.994 194.070, 1062.098 201.200 L 1093.197 214.164 1095.628 211.880 C 1097.073 210.522, 1097.819 208.968, 1097.466 208.048 C 1096.486 205.488, 1048.545 128.014, 1047.937 128.007 C 1047.627 128.003, 1046.107 129.323, 1044.557 130.940 M 1709.064 135.250 C 1708.577 136.488, 1702.963 149.834, 1696.589 164.908 C 1690.215 179.982, 1685 192.683, 1685 193.132 C 1685 194.208, 1690.855 197.215, 1692.125 196.792 C 1693.009 196.497, 1717.976 138.561, 1717.993 136.763 C 1717.999 136.146, 1711.613 133, 1710.353 133 C 1710.132 133, 1709.552 134.012, 1709.064 135.250 M 1751.383 150.888 C 1741.685 153.393, 1732.982 160.299, 1728.285 169.216 C 1725.778 173.974, 1725.501 175.495, 1725.501 184.500 C 1725.500 193.046, 1725.837 195.132, 1727.821 198.849 C 1731.212 205.204, 1737.704 211.812, 1743.460 214.767 C 1750.681 218.474, 1763.198 219.060, 1771.147 216.063 C 1779.011 213.097, 1785.239 207.290, 1789.213 199.218 C 1792.160 193.233, 1792.497 191.661, 1792.475 184.021 C 1792.453 176.705, 1792.055 174.722, 1789.659 170 C 1783.827 158.507, 1773.229 151.349, 1760.802 150.508 C 1757.336 150.274, 1753.097 150.445, 1751.383 150.888 M 1399.500 151.602 C 1339.670 154.677, 1275.168 168.891, 1224.500 190.167 C 1207.903 197.136, 1181.653 210.586, 1168.500 218.859 C 1134.837 240.035, 1103.581 269.483, 1084.054 298.419 C 1077.720 307.806, 1072.795 316.128, 1073.283 316.617 C 1073.932 317.265, 1087.807 307.297, 1096.830 299.700 C 1120.653 279.640, 1136.460 270.519, 1167 259.211 C 1193.193 249.513, 1242.967 236.048, 1280.140 228.605 C 1341.624 216.293, 1402.916 215.950, 1471.500 227.534 C 1519.817 235.694, 1550.800 244.568, 1618 269.492 C 1662.185 285.881, 1678.599 291.367, 1700.146 296.952 C 1733.927 305.708, 1757.564 308.588, 1788.389 307.701 C 1844.883 306.077, 1890.605 290.430, 1956.311 250.237 C 1963.907 245.590, 1969.940 241.606, 1969.717 241.384 C 1969.494 241.161, 1965.080 242.972, 1959.906 245.408 C 1942.192 253.749, 1919.812 259.881, 1895 263.191 C 1882.415 264.869, 1838.592 264.870, 1825 263.191 C 1789.723 258.835, 1757.506 250.890, 1728 239.271 C 1721.675 236.780, 1701.650 228.004, 1683.500 219.768 C 1644.970 202.284, 1625.601 194.116, 1603.479 186.022 C 1554.064 167.943, 1506.646 157.015, 1460.500 153.071 C 1447.158 151.931, 1410.347 151.044, 1399.500 151.602 M 1752.365 160.089 C 1737.771 164.319, 1729.831 181.153, 1736.120 194.531 C 1745.752 215.024, 1775.464 213.183, 1782.616 191.651 C 1788.584 173.681, 1770.515 154.829, 1752.365 160.089 M 1831.881 161.861 C 1829.400 163.434, 1826.401 166.022, 1825.217 167.611 L 1823.063 170.500 1823.032 165.250 L 1823 160 1818.373 160 L 1813.746 160 1814.409 189.250 C 1814.774 205.338, 1815.321 220.188, 1815.624 222.250 C 1816.161 225.901, 1816.287 226, 1820.377 226 L 1824.578 226 1824.169 204.063 C 1823.778 183.048, 1823.853 181.935, 1825.966 177.570 C 1829.308 170.667, 1833.020 168.500, 1841.500 168.500 C 1849.899 168.500, 1853.728 170.687, 1856.834 177.257 C 1858.565 180.918, 1858.936 184.491, 1859.544 203.301 L 1860.248 225.103 1864.374 224.801 L 1868.500 224.500 1868.215 202.500 C 1867.898 178.027, 1866.997 172.827, 1862.036 166.840 C 1857.545 161.421, 1851.784 159, 1843.380 159 C 1837.409 159, 1835.735 159.416, 1831.881 161.861 M 886 248.667 C 861.716 248.884, 849.803 249.348, 848.295 250.137 C 847.083 250.771, 845.338 252.876, 844.417 254.815 C 840.903 262.222, 844.231 276.717, 855.432 302.780 C 862.834 320.004, 867.166 333.065, 869.616 345.536 C 871.916 357.246, 871.934 377.742, 869.654 387.821 C 868.454 393.126, 778.468 626.610, 742.273 718.333 L 740.366 723.166 648.085 486.734 L 555.804 250.302 541.652 249.655 C 520.437 248.684, 456 248.861, 456 249.890 C 456 250.379, 481.200 315.852, 512 395.384 C 542.800 474.916, 568 540.520, 568 541.169 C 568 542.860, 496.718 722.003, 496.053 721.983 C 495.749 721.974, 454.114 615.839, 403.532 486.129 L 311.564 250.291 297.532 249.649 C 289.814 249.296, 267.157 249.006, 247.183 249.004 C 213.041 249, 210.900 249.105, 211.442 250.750 C 211.759 251.713, 255.838 365.675, 309.397 504 L 406.775 755.500 455.089 755.500 L 503.402 755.500 540.938 661.649 C 576.095 573.746, 578.549 567.979, 579.657 570.649 C 580.307 572.217, 596.738 614.560, 616.170 664.744 L 651.500 755.989 699.611 755.994 L 747.723 756 845.951 510.250 C 899.976 375.087, 944.421 263.045, 944.718 261.267 C 945.442 256.916, 943.562 252.763, 939.885 250.591 C 936.149 248.384, 932.429 248.252, 886 248.667 M 1700.560 367.795 C 1685.540 397.159, 1667.788 417.072, 1648.500 426.191 L 1641.500 429.500 1620.250 429.805 L 1599 430.110 1599 435.555 L 1599 441 1618.500 441 L 1638 441 1638.008 573.250 C 1638.013 654.825, 1638.399 708.842, 1639.016 714.223 C 1640.291 725.355, 1644.078 737.353, 1648 742.685 C 1649.686 744.977, 1653.003 747.791, 1655.372 748.938 C 1659.546 750.959, 1660.903 751.015, 1699.317 750.762 L 1738.954 750.500 1730.582 740.684 C 1725.344 734.542, 1721.724 729.301, 1720.913 726.684 C 1719.883 723.363, 1719.544 693.460, 1719.266 581.765 L 1718.916 441.029 1749.208 440.765 L 1779.500 440.500 1779.802 435.250 L 1780.105 430 1749.802 430 L 1719.500 430.001 1719.844 393.500 L 1720.188 357 1713.135 357 L 1706.082 357 1700.560 367.795 M 1381.500 394.675 C 1327.765 398.054, 1279.820 415.725, 1244.429 445.194 C 1218.475 466.805, 1204.140 490.542, 1196.838 524 C 1194.834 533.183, 1194.543 537.323, 1194.523 557 C 1194.503 576.955, 1194.763 580.674, 1196.824 589.881 C 1206.864 634.721, 1232.934 669.142, 1281.500 701.678 C 1301.404 715.013, 1320.948 725.202, 1366.500 745.989 C 1382.450 753.268, 1402.925 762.969, 1412 767.546 C 1464.452 794.003, 1495.662 819.766, 1510.020 848.459 C 1516.475 861.358, 1519 871.383, 1519 884.111 C 1519 896.696, 1517.741 902.570, 1512.847 912.820 C 1494.423 951.410, 1425.289 971.153, 1366.894 954.501 C 1332.896 944.807, 1309.592 925.084, 1303.351 900.726 C 1298.809 882.996, 1307.447 866, 1321 866 C 1326.261 866, 1330.577 868.257, 1333.040 872.299 C 1335.707 876.672, 1335.503 880.013, 1332.091 887.832 C 1326.189 901.358, 1325.838 907.635, 1330.538 915.655 C 1333.525 920.753, 1338.963 925.166, 1346.664 928.742 C 1351.712 931.087, 1354.052 931.502, 1364 931.816 C 1382.568 932.401, 1396.383 927.986, 1407.352 917.961 C 1421.188 905.316, 1426.339 888.826, 1424.006 864.641 C 1421.952 843.348, 1415.871 824.505, 1405.781 808.174 C 1399.248 797.600, 1381.459 779.254, 1371.306 772.621 C 1350.210 758.838, 1326.008 750.810, 1300.500 749.135 C 1243.672 745.403, 1198.958 769.750, 1185.047 812 C 1176.899 836.747, 1179.494 866.240, 1191.997 891 C 1197.986 902.860, 1205.156 912.373, 1216.892 924.030 C 1243.621 950.581, 1278.496 966.518, 1327.500 974.579 C 1340.802 976.767, 1393.270 977.693, 1410.937 976.051 C 1448.759 972.535, 1487.318 964.442, 1510.753 955.101 C 1570.611 931.240, 1610.471 890.126, 1624.281 838 C 1627.129 827.252, 1627.333 825.291, 1627.412 808 C 1627.478 793.541, 1627.097 787.684, 1625.669 781.185 C 1615.095 733.066, 1583.576 691.748, 1531.500 657.740 C 1508.624 642.800, 1485.217 630.924, 1431.500 607.002 C 1379.448 583.821, 1347.727 567.185, 1329.683 553.605 C 1319.904 546.246, 1307.363 532.926, 1302.724 524.973 C 1294.250 510.449, 1292.465 495.362, 1297.461 480.500 C 1306.888 452.457, 1330.947 435.329, 1373.500 426.369 C 1384.941 423.959, 1388.778 423.624, 1405.500 423.568 C 1427.529 423.495, 1432.971 424.522, 1447.500 431.501 C 1463.049 438.969, 1474.766 451.835, 1479.143 466.246 C 1480.973 472.271, 1481.188 474.831, 1480.708 484.866 C 1480.401 491.265, 1479.184 501.225, 1478.004 507 C 1476.376 514.963, 1475.935 520.171, 1476.180 528.554 C 1476.484 539.002, 1476.707 540.023, 1480.253 547.198 C 1486.634 560.108, 1500.195 570.326, 1516.500 574.510 C 1524.334 576.520, 1539.946 576.519, 1548.632 574.509 C 1570.750 569.389, 1588.783 551.787, 1593.081 531.120 C 1594.981 521.985, 1593.743 504.138, 1590.506 494 C 1580.563 462.855, 1557.337 438.473, 1520.545 420.554 C 1481.217 401.399, 1429.029 391.686, 1381.500 394.675 M 959 431.971 C 949.665 441.530, 941.082 447.115, 929.163 451.389 C 920.130 454.628, 906.049 456.991, 895.750 456.996 L 888 457 888 604 L 888 751 927.840 751 L 967.680 751 968.340 726.838 C 968.703 713.549, 969 663.469, 969 615.548 C 969 519.398, 968.757 523.415, 975.410 509.500 C 984.947 489.552, 1008.508 465.323, 1027.500 455.933 C 1047.216 446.185, 1061.192 449.207, 1066.896 464.451 C 1069.306 470.893, 1071.113 484.740, 1070.317 490.672 C 1070.016 492.915, 1070.256 498.356, 1070.849 502.764 C 1073.659 523.648, 1085.021 534.397, 1105.708 535.743 C 1120.884 536.730, 1131.932 533.056, 1140.123 524.299 C 1151.773 511.845, 1152.949 490.454, 1143.082 470.500 C 1131.756 447.597, 1112.546 435.259, 1081.678 431.063 C 1039.596 425.343, 1002.186 443.644, 975.913 482.803 L 969 493.107 969 458.053 C 969 438.774, 968.663 423.060, 968.250 423.134 C 967.837 423.207, 963.675 427.184, 959 431.971 M 1897.500 430.084 C 1869.903 432.906, 1845.711 440.701, 1830.974 451.519 C 1806.927 469.171, 1797.459 501.711, 1809.136 526.569 C 1816.090 541.373, 1833.235 548.889, 1854.056 546.261 C 1881.110 542.846, 1892.256 525.024, 1882.105 501.409 C 1875.641 486.369, 1874.412 475.319, 1878.107 465.442 C 1881.070 457.525, 1891.076 447.073, 1899.808 442.774 C 1905.634 439.906, 1907.532 439.494, 1916.442 439.170 C 1928.153 438.743, 1936.281 440.458, 1945.326 445.264 C 1956.089 450.983, 1962.790 462.275, 1961.594 472.678 C 1960.810 479.506, 1956.194 492.387, 1951.923 499.665 C 1944.623 512.107, 1922.875 531.111, 1898.170 546.637 C 1865.342 567.268, 1852.648 576.342, 1832.160 593.822 C 1805.885 616.241, 1794.834 632.103, 1788.290 656.794 C 1784.680 670.414, 1784.464 692.170, 1787.808 705.460 C 1794.177 730.775, 1808.846 745.756, 1834.557 753.200 C 1841.571 755.231, 1844.665 755.500, 1861 755.500 C 1876.403 755.500, 1881.425 755.111, 1891 753.174 C 1916.740 747.966, 1941.727 737.466, 1956.750 725.543 L 1965 718.995 1965 723.460 C 1965 733.838, 1971.622 743.733, 1981.486 748.097 C 1988.395 751.153, 1996.889 751.714, 2028.750 751.220 C 2060.397 750.729, 2062.325 750.408, 2056.513 746.600 C 2051.169 743.099, 2047.843 732.407, 2046.062 713 C 2045.401 705.794, 2045.006 661.908, 2045.003 595.460 C 2045 478.835, 2045.274 484.356, 2038.811 471 C 2034.935 462.991, 2024.259 452.104, 2015 446.720 C 2003.704 440.152, 1977.314 432.692, 1956.026 430.051 C 1946.319 428.847, 1909.395 428.868, 1897.500 430.084 M 1961.074 506.500 C 1954.198 517.836, 1939.754 535.283, 1923.023 552.460 C 1889.987 586.378, 1877.516 603.373, 1870.479 624.063 C 1865.085 639.920, 1863.296 660.744, 1865.997 676.216 C 1872.442 713.134, 1899.245 734.689, 1929.760 727.494 C 1940.199 725.033, 1954.376 716.746, 1961.755 708.792 L 1964.010 706.361 1963.755 604.430 L 1963.500 502.500 1961.074 506.500 M 1145.003 561.144 C 1135.465 569.077, 1115.501 574.416, 1086.169 576.878 C 1079.937 577.401, 1074.694 577.980, 1074.519 578.164 C 1074.344 578.349, 1074.043 617.313, 1073.850 664.750 L 1073.500 751 1110.750 751 L 1148 751 1148 655 C 1148 602.200, 1147.888 559.015, 1147.750 559.033 C 1147.612 559.052, 1146.376 560.001, 1145.003 561.144" stroke="none" fill="#344c7c" fill-rule="evenodd"/><path d="M 2234.318 574.938 C 2226.887 577.613, 2218.817 583.283, 2212.490 590.274 C 2209.470 593.611, 2207 596.732, 2207 597.211 C 2207 597.689, 2205.176 596.375, 2202.946 594.290 C 2193.812 585.749, 2181.318 580, 2171.891 580 C 2167.970 580, 2166.789 580.452, 2165.099 582.601 C 2163.973 584.032, 2162.744 586.845, 2162.367 588.851 C 2160.879 596.770, 2166.103 614.202, 2172.464 622.542 L 2174.890 625.722 2167.813 630.558 C 2152.804 640.812, 2144.520 657.443, 2151.264 663.778 C 2157.400 669.543, 2172.968 671.594, 2185.567 668.297 L 2192.633 666.448 2193.826 671.474 C 2197.605 687.402, 2210.664 704, 2219.416 704 C 2227.445 704, 2237.907 683.647, 2237.983 667.878 L 2238 664.257 2248.750 663.764 C 2261.940 663.160, 2269.231 660.661, 2275.594 654.564 C 2280.511 649.854, 2280.805 648.370, 2278.035 642.268 C 2274.475 634.426, 2264.590 626.455, 2252.158 621.402 C 2249.046 620.138, 2246.516 618.742, 2246.535 618.301 C 2246.554 617.861, 2247.858 613.675, 2249.434 609 C 2251.746 602.142, 2252.316 598.665, 2252.382 591 C 2252.525 574.330, 2247.764 570.097, 2234.318 574.938 M 87.823 618.778 C 84.052 621.266, 81.422 624.873, 77.911 632.375 C 69.061 651.289, 68.553 687.509, 76.808 711.049 L 78.754 716.597 70.966 717.823 C 36.210 723.291, -0 746.748, 0 763.795 C 0 770.104, 2.347 774.224, 9.877 781.131 C 24.973 794.979, 55.227 805, 81.941 805 L 86.962 805 86.231 809.750 C 85.829 812.362, 85.552 821.700, 85.615 830.500 C 85.714 844.260, 86.090 847.861, 88.301 856.224 C 92.938 873.766, 102.996 889.193, 111.658 892.052 C 122.552 895.648, 139.927 885.864, 154.197 868.098 C 161.507 858.998, 170.585 842.146, 173.542 832.188 C 174.952 827.439, 175.798 825.993, 176.958 826.348 C 177.806 826.608, 182.451 828.465, 187.279 830.475 C 202.129 836.657, 213.542 839.126, 230.057 839.728 C 252.795 840.558, 268.104 836.482, 273.722 828.102 C 277.879 821.901, 276.427 808.514, 270.078 794.511 C 263.449 779.891, 249.517 763.060, 234.975 752.102 L 227.181 746.229 231.219 742.365 C 241.638 732.394, 252.474 714.572, 257.585 699 C 260.038 691.528, 260.383 688.928, 260.438 677.500 C 260.492 666.173, 260.231 663.987, 258.408 660.512 C 255.235 654.462, 249.337 651.844, 237.486 651.224 C 216.166 650.108, 191.420 657.916, 170.545 672.344 L 162.590 677.842 158.233 670.196 C 147.960 652.173, 130.613 632.907, 117.681 625.160 C 104.619 617.335, 93.587 614.977, 87.823 618.778" stroke="none" fill="#fcc494" fill-rule="evenodd"/></svg>