<svg viewBox="0 0 73.95 67.39" xmlns="http://www.w3.org/2000/svg" xmlns:xlink="http://www.w3.org/1999/xlink"><linearGradient id="a" gradientTransform="matrix(-.85887052 -.51219277 .51219277 -.85887052 205.6 134.62)" gradientUnits="userSpaceOnUse" x1="193.75" x2="200.18" y1="1.32" y2="1.32"><stop offset=".04" stop-color="#f27b40"/><stop offset="1" stop-color="#ec697d"/></linearGradient><path d="m67.71 23.28-20.07 13a2.64 2.64 0 0 1 -2.88-4.43l20.07-13a2.64 2.64 0 1 1 2.88 4.43z" fill="#389bf3" opacity=".8"/><path d="m40.89 40.72-13.42 8.72a2.64 2.64 0 0 1 -2.88-4.44l13.41-8.71a2.64 2.64 0 1 1 2.88 4.43z" fill="#ff9d23" opacity=".8"/><path d="m58.29 20.22-20.07 13a2.64 2.64 0 1 1 -2.88-4.43l20.07-13a2.65 2.65 0 0 1 2.88 4.44z" fill="#aa7dff"/><path d="m31.47 37.65-13.42 8.73a2.65 2.65 0 1 1 -2.88-4.44l13.42-8.72a2.64 2.64 0 0 1 2.88 4.43z" fill="#389bf3"/><path d="m64.34 16.28-.12.08a2.64 2.64 0 1 1 -2.88-4.43l.12-.08a2.64 2.64 0 1 1 2.88 4.43z" fill="#ff9d23"/><path d="m66.69 33.14-20.07 13a2.64 2.64 0 0 1 -2.88-4.43l20.07-13a2.64 2.64 0 1 1 2.88 4.43z" fill="#389bf3" opacity=".5"/><path d="m39.87 50.58-13.42 8.72a2.64 2.64 0 1 1 -2.88-4.43l13.43-8.72a2.64 2.64 0 1 1 2.88 4.43z" fill="#aa7dff" opacity=".5"/><path d="m72.74 29.21-.12.08a2.64 2.64 0 0 1 -2.88-4.43l.12-.08a2.64 2.64 0 1 1 2.88 4.43z" fill="#ff9d23" opacity=".5"/><path d="m1.49.84h46.44v65.39h-46.44z" fill="#fff"/><g fill="none" stroke="#732e54" stroke-miterlimit="10"><path d="m42.19 61.24v-13.26"/><path d="m42.19 46.08v-4.32" opacity=".5"/><path d="m42.19 39.9v-3.32" opacity=".2"/><rect height="65.39" rx="3" stroke-width="2" width="46.44" x="1" y="1"/><path d="m13.85 11.08h22.32" stroke-linecap="round" stroke-width="2"/><path d="m13.85 16.66h7.32" stroke-linecap="round" stroke-width="2"/><path d="m13.85 27.83h7.32" stroke-linecap="round" stroke-width="2"/><path d="m13.85 22.24h20.32" stroke-linecap="round" stroke-width="2"/><path d="m13.58 58.82h21.03" stroke-linecap="round" stroke-width="2"/></g><path d="m51.42 8.6a3.2 3.2 0 0 1 1.12 4.4l-23.41 39.25-6.05 4.54.53-7.79 23.39-39.29a3.21 3.21 0 0 1 4.42-1.11z" fill="url(#a)"/><path d="m29.47 51.16-5.99 4.49.53-7.83z" fill="#fff"/><path d="m51.3 8.52a3.22 3.22 0 0 1 1.11 4.41l-22.89 38.38-6.67 5.34 1.15-8.65 22.89-38.37a3.22 3.22 0 0 1 4.41-1.11z" fill="none" stroke="#732e54" stroke-miterlimit="10" stroke-width="2"/></svg>