<svg viewBox="0 0 72 72" xmlns="http://www.w3.org/2000/svg"><path d="m11.9726 28.2042.123 31.8059 31.6009-.082 16.2309-12.3781.1229-19.4688z" fill="#fff"/><path d="m12.1421 28.1401h47.71v-15.8878h-47.71zm37.8551-11.3806h.0307c.841.0081 1.6281.3433 2.2169.9435.5897.6004.9094 1.3941.901 2.2351-.0162 1.7261-1.426 3.1186-3.1479 3.1186-.0099 0-.0207 0-.0307 0-1.7357-.017-3.134-1.4429-3.1179-3.1786.0162-1.7261 1.426-3.1186 3.1479-3.1186zm-30.2703.848c.6109-.5985 1.4156-.9273 2.2694-.9273h.0317c1.7866.0174 3.2267 1.4852 3.2101 3.2719-.0166 1.7768-1.4678 3.2102-3.2403 3.2102-.0102 0-.0213 0-.0316 0-1.7867-.0175-3.2267-1.4852-3.2101-3.2719.0078-.8656.3528-1.6763.9708-2.2829z" fill="#ea5a47"/><path d="m56.9559 49.0381h-12.8172v4.4795c0 .5527-.4473 1-1 1-.502 0-.8992-.3752-.9712-.8569v5.4255l1.1596-.0003z" fill="#d0cfce"/><g style="fill:none;stroke:#000;stroke-linecap:round;stroke-linejoin:round;stroke-miterlimit:10;stroke-width:2"><ellipse clip-rule="evenodd" cx="21.997" cy="19.9408" rx="3" ry="3" transform="matrix(.0096 -1 1 .0096 1.8467 41.746)"/><path d="m11.997 12.2142h48v16h-48z"/><ellipse clip-rule="evenodd" cx="49.9976" cy="19.9408" rx="3" ry="3" transform="matrix(.0096 -1 1 .0096 29.5794 69.7454)"/><path d="m11.997 28.0918v32l31.6594-.0054 16.3406-12.0482v-19.9464"/></g><ellipse cx="18.2166" cy="33.6726" rx="2" ry="2" transform="matrix(.0096 -1 1 .0096 -15.6284 51.5668)"/><ellipse cx="24.2166" cy="33.6726" rx="2" ry="2" transform="matrix(.0096 -1 1 .0096 -9.6857 57.5665)"/><ellipse cx="30.2166" cy="33.6726" rx="2" ry="2" transform="matrix(.0096 -1 1 .0096 -3.743 63.5662)"/><ellipse cx="36.2166" cy="33.6726" rx="2" ry="2" transform="matrix(.0096 -1 1 .0096 2.1997 69.566)"/><ellipse cx="18.2166" cy="39.6726" rx="2" ry="2" transform="matrix(.0096 -1 1 .0096 -21.6282 57.5095)"/><ellipse cx="24.2166" cy="39.6726" rx="2" ry="2" transform="matrix(.0096 -1 1 .0096 -15.6855 63.5092)"/><ellipse cx="30.2166" cy="39.6726" rx="2" ry="2" transform="matrix(.0096 -1 1 .0096 -9.7428 69.5089)"/><ellipse cx="36.2166" cy="39.6726" rx="2" ry="2" transform="matrix(.0096 -1 1 .0096 -3.8001 75.5087)"/><ellipse cx="18.2166" cy="45.6726" rx="2" ry="2" transform="matrix(.0096 -1 1 .0096 -27.6279 63.4522)"/><path d="m59.8694 48.0382h-16.731v5.4793" style="fill:none;stroke:#000;stroke-linecap:round;stroke-linejoin:round;stroke-miterlimit:10;stroke-width:2"/></svg>